<svg width="615" height="584" viewBox="0 0 615 584" fill="none" xmlns="http://www.w3.org/2000/svg">
<path d="M46.1972 150.466L307.5 7.69764L568.803 150.466V435.534L307.5 578.302L46.1972 435.534L46.1972 150.466Z" fill="#001829" stroke="#297EA6" stroke-width="10"/>
<path d="M167.17 454C161.437 454 156.42 451.993 152.12 447.98C148.107 443.68 146.1 438.663 146.1 432.93V182.67C146.1 160.31 159.573 149.13 186.52 149.13V418.31H318.53C328.563 418.31 336.303 421.463 341.75 427.77C347.197 433.79 349.92 442.533 349.92 454H167.17Z" fill="white"/>
<path d="M373.6 454.87C349.52 454.87 328.593 451.43 310.82 444.55C293.333 437.67 280.003 428.497 270.83 417.03C261.657 405.563 257.07 393.237 257.07 380.05C257.07 369.157 259.937 360.843 265.67 355.11C271.403 349.09 280.147 346.08 291.9 346.08C291.9 370.447 299.21 389.08 313.83 401.98C328.45 414.593 348.947 420.9 375.32 420.9C400.547 420.9 419.897 416.743 433.37 408.43C446.843 399.83 453.58 387.217 453.58 370.59C453.58 360.557 451 352.387 445.84 346.08C440.967 339.487 432.51 333.897 420.47 329.31C408.717 324.437 391.66 319.563 369.3 314.69C342.927 308.957 322 302.363 306.52 294.91C291.04 287.17 279.717 277.853 272.55 266.96C265.383 256.067 261.8 242.593 261.8 226.54C261.8 210.487 266.243 196.44 275.13 184.4C284.303 172.073 297.203 162.613 313.83 156.02C330.457 149.427 349.807 146.13 371.88 146.13C392.807 146.13 411.44 149.14 427.78 155.16C444.407 160.893 457.307 169.207 466.48 180.1C475.94 190.707 480.67 202.747 480.67 216.22C480.67 224.533 477.947 231.127 472.5 236C467.34 240.587 459.17 242.88 447.99 242.88C444.837 221.093 437.097 205.183 424.77 195.15C412.73 185.117 395.1 180.1 371.88 180.1C349.52 180.1 332.32 184.113 320.28 192.14C308.24 199.88 302.22 210.917 302.22 225.25C302.22 235.283 304.37 243.597 308.67 250.19C313.257 256.497 320.853 261.943 331.46 266.53C342.353 271.117 357.547 275.56 377.04 279.86C406.28 286.167 429.213 293.19 445.84 300.93C462.753 308.67 474.937 318.13 482.39 329.31C489.843 340.49 493.57 354.25 493.57 370.59C493.57 396.677 482.677 417.317 460.89 432.51C439.103 447.417 410.007 454.87 373.6 454.87Z" fill="white"/>
</svg>
