<svg width="533" height="582" viewBox="0 0 533 582" fill="none" xmlns="http://www.w3.org/2000/svg">
<path fill-rule="evenodd" clip-rule="evenodd" d="M132.5 72.4751L0.5 144.741V290.979V437.217L132.992 509.609C205.862 549.424 265.964 582 266.552 582C267.14 582 327.219 549.433 400.061 509.629L532.5 437.258V291.02V144.783L400.008 72.3911C327.138 32.5761 266.838 0.0470579 266.008 0.105058C265.179 0.163058 205.1 32.7291 132.5 72.4751Z" fill="#DFE2E4"/>
<path fill-rule="evenodd" clip-rule="evenodd" d="M132.5 72.4751L0.5 144.741V290.979V437.217L132.992 509.609C205.862 549.424 265.964 582 266.552 582C267.14 582 327.219 549.433 400.061 509.629L532.5 437.258V291.02V144.783L400.008 72.3911C327.138 32.5761 266.838 0.0470579 266.008 0.105058C265.179 0.163058 205.1 32.7291 132.5 72.4751ZM333.264 144.704C332.034 144.941 329.784 144.947 328.264 144.718C326.744 144.488 327.75 144.294 330.5 144.286C333.25 144.279 334.494 144.467 333.264 144.704ZM144.729 147.604C144.397 147.936 143.534 147.972 142.813 147.683C142.015 147.364 142.252 147.127 143.417 147.079C144.471 147.036 145.061 147.272 144.729 147.604ZM115 156.378C115 156.585 114.213 157.373 113.25 158.128C111.664 159.371 111.629 159.336 112.872 157.75C114.179 156.084 115 155.555 115 156.378ZM421.5 174C423.648 176.2 425.181 178 424.906 178C424.631 178 422.648 176.2 420.5 174C418.352 171.8 416.819 170 417.094 170C417.369 170 419.352 171.8 421.5 174ZM245 171.304C245 171.471 243.313 173.158 241.25 175.054L237.5 178.5L240.946 174.75C244.154 171.26 245 170.54 245 171.304ZM105.75 369.172C105.604 404.553 105.485 375.9 105.485 305.5C105.485 235.1 105.604 206.153 105.75 241.172C105.896 276.192 105.896 333.792 105.75 369.172ZM434 231.378C434 231.585 433.212 232.373 432.25 233.128C430.664 234.371 430.629 234.336 431.872 232.75C433.179 231.084 434 230.555 434 231.378ZM410.25 240.662C409.563 240.94 408.438 240.94 407.75 240.662C407.063 240.385 407.625 240.158 409 240.158C410.375 240.158 410.938 240.385 410.25 240.662ZM433.5 318C435.648 320.2 437.181 322 436.906 322C436.631 322 434.648 320.2 432.5 318C430.352 315.8 428.819 314 429.094 314C429.369 314 431.352 315.8 433.5 318ZM250.743 346C251.006 346.965 250.857 347.107 250.326 346.4C249.872 345.795 248.825 345.015 248 344.668C246.946 344.223 247.07 344.104 248.417 344.268C249.472 344.395 250.518 345.175 250.743 346ZM216.706 380.25C216.467 381.488 216.272 380.475 216.272 378C216.272 375.525 216.467 374.512 216.706 375.75C216.944 376.988 216.944 379.012 216.706 380.25ZM270.128 397.75C271.371 399.336 271.336 399.371 269.75 398.128C268.084 396.821 267.555 396 268.378 396C268.585 396 269.373 396.788 270.128 397.75ZM402 399.378C402 399.585 401.212 400.373 400.25 401.128C398.664 402.371 398.629 402.336 399.872 400.75C401.179 399.084 402 398.555 402 399.378ZM335.768 452.715C334.265 452.943 331.565 452.947 329.768 452.725C327.971 452.502 329.2 452.315 332.5 452.31C335.8 452.304 337.271 452.486 335.768 452.715Z" fill="#BFC5CA"/>
<path fill-rule="evenodd" clip-rule="evenodd" d="M132.5 72.4751L0.5 144.741V290.979V437.217L132.992 509.609C205.862 549.424 265.964 582 266.552 582C267.14 582 327.219 549.433 400.061 509.629L532.5 437.258V291.02V144.783L400.008 72.3911C327.138 32.5761 266.838 0.0470579 266.008 0.105058C265.179 0.163058 205.1 32.7291 132.5 72.4751ZM335.75 144.735C333.137 144.941 328.863 144.941 326.25 144.735C323.637 144.529 325.775 144.36 331 144.36C336.225 144.36 338.363 144.529 335.75 144.735ZM144.269 147.656C143.592 147.93 142.242 147.947 141.269 147.693C140.296 147.439 140.85 147.215 142.5 147.195C144.15 147.175 144.946 147.382 144.269 147.656ZM116 155.345C116 155.535 114.988 156.547 113.75 157.595L111.5 159.5L113.405 157.25C115.195 155.136 116 154.545 116 155.345ZM421.5 174C424.209 176.75 426.2 179 425.925 179C425.65 179 423.209 176.75 420.5 174C417.791 171.25 415.8 169 416.075 169C416.35 169 418.791 171.25 421.5 174ZM242 174.5C239.571 176.975 237.359 179 237.084 179C236.809 179 238.571 176.975 241 174.5C243.429 172.025 245.641 170 245.916 170C246.191 170 244.429 172.025 242 174.5ZM105.75 369.75C105.604 405.362 105.485 376.225 105.485 305C105.485 233.775 105.604 204.637 105.75 240.25C105.895 275.862 105.895 334.137 105.75 369.75ZM316.729 178.604C316.397 178.936 315.534 178.972 314.813 178.683C314.015 178.364 314.252 178.127 315.417 178.079C316.471 178.036 317.061 178.272 316.729 178.604ZM221.683 217.188C221.364 217.985 221.127 217.748 221.079 216.583C221.036 215.529 221.272 214.939 221.604 215.271C221.936 215.603 221.972 216.466 221.683 217.188ZM435 230.326C435 230.505 433.762 231.742 432.25 233.076L429.5 235.5L431.924 232.75C434.19 230.18 435 229.541 435 230.326ZM411.269 240.656C410.592 240.93 409.242 240.947 408.269 240.693C407.296 240.439 407.85 240.215 409.5 240.195C411.15 240.175 411.946 240.382 411.269 240.656ZM438 322.708C438 323.459 437.102 322.665 432.958 318.25L428.5 313.5L433.25 317.958C435.863 320.41 438 322.548 438 322.708ZM250.985 345.75C250.975 346.861 250.701 347.086 250.235 346.366C249.831 345.742 248.6 345.007 247.5 344.732C245.967 344.349 246.142 344.205 248.25 344.116C250.252 344.032 250.996 344.476 250.985 345.75ZM216.716 380.75C216.487 382.262 216.3 381.025 216.3 378C216.3 374.975 216.487 373.738 216.716 375.25C216.945 376.762 216.945 379.238 216.716 380.75ZM270.128 397.75C271.371 399.336 271.336 399.371 269.75 398.128C268.084 396.821 267.555 396 268.378 396C268.585 396 269.373 396.788 270.128 397.75ZM402 399.378C402 399.585 401.212 400.373 400.25 401.128C398.664 402.371 398.629 402.336 399.872 400.75C401.179 399.084 402 398.555 402 399.378ZM231 416C231 416.655 216.073 416.919 187.75 416.766L144.5 416.532L187.5 416C211.15 415.707 230.613 415.362 230.75 415.234C230.887 415.105 231 415.45 231 416ZM435 417.304C435 417.471 433.313 419.158 431.25 421.054L427.5 424.5L430.946 420.75C434.154 417.26 435 416.54 435 417.304ZM352.729 418.604C352.397 418.936 351.534 418.972 350.813 418.683C350.015 418.364 350.252 418.127 351.417 418.079C352.471 418.036 353.061 418.272 352.729 418.604ZM310.729 451.604C310.397 451.936 309.534 451.972 308.813 451.683C308.015 451.364 308.252 451.127 309.417 451.079C310.471 451.036 311.061 451.272 310.729 451.604ZM356.729 451.604C356.397 451.936 355.534 451.972 354.813 451.683C354.015 451.364 354.252 451.127 355.417 451.079C356.471 451.036 357.061 451.272 356.729 451.604ZM337.784 452.734C335.189 452.939 330.689 452.941 327.784 452.738C324.878 452.536 327 452.368 332.5 452.365C338 452.363 340.378 452.528 337.784 452.734Z" fill="#9FA8AF"/>
<path fill-rule="evenodd" clip-rule="evenodd" d="M132.5 72.4751L0.5 144.741V290.979V437.217L132.992 509.609C205.862 549.424 265.964 582 266.552 582C267.14 582 327.219 549.433 400.061 509.629L532.5 437.258V291.02V144.783L400.008 72.3911C327.138 32.5761 266.838 0.0470579 266.008 0.105058C265.179 0.163058 205.1 32.7291 132.5 72.4751ZM336.75 144.739C333.587 144.937 328.413 144.937 325.25 144.739C322.087 144.541 324.675 144.378 331 144.378C337.325 144.378 339.913 144.541 336.75 144.739ZM310.729 145.604C310.397 145.936 309.534 145.972 308.813 145.683C308.015 145.364 308.252 145.127 309.417 145.079C310.471 145.036 311.061 145.272 310.729 145.604ZM143.762 147.687C142.806 147.937 141.006 147.946 139.762 147.707C138.518 147.468 139.3 147.263 141.5 147.252C143.7 147.241 144.718 147.437 143.762 147.687ZM116 155.326C116 155.505 114.762 156.742 113.25 158.076L110.5 160.5L112.924 157.75C115.19 155.18 116 154.541 116 155.326ZM413.128 166.75C414.371 168.336 414.336 168.371 412.75 167.128C411.084 165.821 410.555 165 411.378 165C411.585 165 412.373 165.787 413.128 166.75ZM421.5 174C424.766 177.3 427.212 180 426.937 180C426.662 180 423.766 177.3 420.5 174C417.234 170.7 414.788 168 415.063 168C415.338 168 418.234 170.7 421.5 174ZM247 169.284C247 169.44 244.413 172.028 241.25 175.034L235.5 180.5L240.966 174.75C246.044 169.408 247 168.542 247 169.284ZM105.75 370.25C105.604 406.137 105.485 376.775 105.485 305C105.485 233.225 105.604 203.862 105.75 239.75C105.895 275.637 105.895 334.362 105.75 370.25ZM317.25 178.662C316.563 178.94 315.438 178.94 314.75 178.662C314.063 178.385 314.625 178.158 316 178.158C317.375 178.158 317.938 178.385 317.25 178.662ZM345.729 178.604C345.397 178.936 344.534 178.972 343.813 178.683C343.015 178.364 343.252 178.127 344.417 178.079C345.471 178.036 346.061 178.272 345.729 178.604ZM385.128 193.75C386.371 195.336 386.336 195.371 384.75 194.128C383.788 193.373 383 192.585 383 192.378C383 191.555 383.821 192.084 385.128 193.75ZM391.128 199.75C392.371 201.336 392.336 201.371 390.75 200.128C389.084 198.821 388.555 198 389.378 198C389.585 198 390.373 198.787 391.128 199.75ZM438.683 205.188C438.364 205.985 438.127 205.748 438.079 204.583C438.036 203.529 438.272 202.939 438.604 203.271C438.936 203.603 438.972 204.466 438.683 205.188ZM439.689 215.75C439.438 216.713 439.232 215.925 439.232 214C439.232 212.075 439.438 211.287 439.689 212.25C439.941 213.213 439.941 214.787 439.689 215.75ZM221.662 217.25C221.385 217.938 221.158 217.375 221.158 216C221.158 214.625 221.385 214.063 221.662 214.75C221.94 215.438 221.94 216.563 221.662 217.25ZM261.683 232.188C261.364 232.985 261.127 232.748 261.079 231.583C261.036 230.529 261.272 229.939 261.604 230.271C261.936 230.603 261.972 231.466 261.683 232.188ZM435 230.326C435 230.505 433.762 231.742 432.25 233.076L429.5 235.5L431.924 232.75C434.19 230.18 435 229.541 435 230.326ZM221.662 235.25C221.385 235.938 221.158 235.375 221.158 234C221.158 232.625 221.385 232.063 221.662 232.75C221.94 233.438 221.94 234.563 221.662 235.25ZM412.762 240.687C411.806 240.937 410.006 240.946 408.762 240.707C407.518 240.468 408.3 240.263 410.5 240.252C412.7 240.241 413.718 240.437 412.762 240.687ZM240 274.5C241.292 275.875 242.124 277 241.849 277C241.574 277 240.292 275.875 239 274.5C237.708 273.125 236.876 272 237.151 272C237.426 272 238.708 273.125 240 274.5ZM434 318.5C436.987 321.525 439.207 324 438.932 324C438.657 324 435.987 321.525 433 318.5C430.013 315.475 427.793 313 428.068 313C428.343 313 431.013 315.475 434 318.5ZM250.985 345.75C250.975 346.886 250.71 347.093 250.231 346.34C249.826 345.702 248.145 344.982 246.497 344.74C243.779 344.341 243.849 344.286 247.25 344.15C250.217 344.031 250.997 344.365 250.985 345.75ZM227 351.345C227 351.535 225.988 352.547 224.75 353.595L222.5 355.5L224.405 353.25C226.195 351.136 227 350.545 227 351.345ZM451.683 357.188C451.364 357.985 451.127 357.748 451.079 356.583C451.036 355.529 451.272 354.939 451.604 355.271C451.936 355.603 451.972 356.466 451.683 357.188ZM251.683 358.188C251.364 358.985 251.127 358.748 251.079 357.583C251.036 356.529 251.272 355.939 251.604 356.271C251.936 356.603 251.972 357.466 251.683 358.188ZM412.662 364.25C412.385 364.938 412.158 364.375 412.158 363C412.158 361.625 412.385 361.063 412.662 361.75C412.94 362.438 412.94 363.563 412.662 364.25ZM216.728 381.75C216.513 383.813 216.336 382.125 216.336 378C216.336 373.875 216.513 372.188 216.728 374.25C216.944 376.313 216.944 379.688 216.728 381.75ZM412.683 375.188C412.364 375.985 412.127 375.748 412.079 374.583C412.036 373.529 412.272 372.939 412.604 373.271C412.936 373.603 412.972 374.466 412.683 375.188ZM451.683 381.188C451.364 381.985 451.127 381.748 451.079 380.583C451.036 379.529 451.272 378.939 451.604 379.271C451.936 379.603 451.972 380.466 451.683 381.188ZM265.128 391.75C266.371 393.336 266.336 393.371 264.75 392.128C263.788 391.373 263 390.585 263 390.378C263 389.555 263.821 390.084 265.128 391.75ZM270.128 397.75C271.371 399.336 271.336 399.371 269.75 398.128C268.084 396.821 267.555 396 268.378 396C268.585 396 269.373 396.788 270.128 397.75ZM402 399.378C402 399.585 401.212 400.373 400.25 401.128C398.664 402.371 398.629 402.336 399.872 400.75C401.179 399.084 402 398.555 402 399.378ZM276.128 402.75C277.371 404.336 277.336 404.371 275.75 403.128C274.084 401.821 273.555 401 274.378 401C274.585 401 275.373 401.788 276.128 402.75ZM231 416.059C231 416.636 214.278 416.908 187.75 416.761L144.5 416.522L187.302 416.25C219.109 416.048 229.923 415.685 229.398 414.835C228.962 414.13 229.134 413.965 229.845 414.405C230.48 414.797 231 415.541 231 416.059ZM360.729 417.604C360.397 417.936 359.534 417.972 358.813 417.683C358.015 417.364 358.252 417.127 359.417 417.079C360.471 417.036 361.061 417.272 360.729 417.604ZM435 417.304C435 417.471 433.313 419.158 431.25 421.054L427.5 424.5L430.946 420.75C434.154 417.26 435 416.54 435 417.304ZM321.729 418.604C321.397 418.936 320.534 418.972 319.813 418.683C319.015 418.364 319.252 418.127 320.417 418.079C321.471 418.036 322.061 418.272 321.729 418.604ZM352.269 418.656C351.592 418.93 350.242 418.947 349.269 418.693C348.296 418.439 348.85 418.215 350.5 418.195C352.15 418.175 352.946 418.382 352.269 418.656ZM310.729 451.604C310.397 451.936 309.534 451.972 308.813 451.683C308.015 451.364 308.252 451.127 309.417 451.079C310.471 451.036 311.061 451.272 310.729 451.604ZM357.25 451.662C356.563 451.94 355.438 451.94 354.75 451.662C354.063 451.385 354.625 451.158 356 451.158C357.375 451.158 357.938 451.385 357.25 451.662ZM339.25 452.74C335.813 452.936 330.188 452.936 326.75 452.74C323.313 452.545 326.125 452.385 333 452.385C339.875 452.385 342.688 452.545 339.25 452.74Z" fill="#7F8B94"/>
<path fill-rule="evenodd" clip-rule="evenodd" d="M132.5 72.4751L0.5 144.741V290.979V437.217L132.992 509.609C205.862 549.424 265.964 582 266.552 582C267.14 582 327.219 549.433 400.061 509.629L532.5 437.258V291.02V144.783L400.008 72.3911C327.138 32.5761 266.838 0.0470579 266.008 0.105058C265.179 0.163058 205.1 32.7291 132.5 72.4751ZM338.75 144.743C334.488 144.931 327.512 144.931 323.25 144.743C318.988 144.556 322.475 144.402 331 144.402C339.525 144.402 343.012 144.556 338.75 144.743ZM310.269 145.656C309.592 145.93 308.242 145.947 307.269 145.693C306.296 145.439 306.85 145.215 308.5 145.195C310.15 145.175 310.946 145.382 310.269 145.656ZM354.25 145.662C353.563 145.94 352.438 145.94 351.75 145.662C351.063 145.385 351.625 145.158 353 145.158C354.375 145.158 354.938 145.385 354.25 145.662ZM302.25 146.662C301.563 146.94 300.438 146.94 299.75 146.662C299.063 146.385 299.625 146.158 301 146.158C302.375 146.158 302.938 146.385 302.25 146.662ZM361.729 146.604C361.397 146.936 360.534 146.972 359.813 146.683C359.015 146.364 359.252 146.127 360.417 146.079C361.471 146.036 362.061 146.272 361.729 146.604ZM146 281.5V416H188.122C228.095 416 230.175 415.911 228.872 414.25C227.629 412.664 227.664 412.629 229.25 413.872C230.212 414.627 231 415.64 231 416.122C231 416.612 212 417 188 417H145V282.555V148.11L140.25 147.735L135.5 147.36L140.75 147.18L146 147V281.5ZM296.729 147.604C296.397 147.936 295.534 147.972 294.813 147.683C294.015 147.364 294.252 147.127 295.417 147.079C296.471 147.036 297.061 147.272 296.729 147.604ZM132.729 148.604C132.397 148.936 131.534 148.972 130.813 148.683C130.015 148.364 130.252 148.127 131.417 148.079C132.471 148.036 133.061 148.272 132.729 148.604ZM371.729 148.604C371.397 148.936 370.534 148.972 369.813 148.683C369.015 148.364 369.252 148.127 370.417 148.079C371.471 148.036 372.061 148.272 371.729 148.604ZM117 154.304C117 154.471 115.313 156.158 113.25 158.054L109.5 161.5L112.946 157.75C116.154 154.26 117 153.54 117 154.304ZM397 157C397.825 157.533 398.05 157.969 397.5 157.969C396.95 157.969 395.825 157.533 395 157C394.175 156.467 393.95 156.031 394.5 156.031C395.05 156.031 396.175 156.467 397 157ZM407 162.57C407 162.845 406.1 162.589 405 162C403.9 161.411 403 160.705 403 160.43C403 160.155 403.9 160.411 405 161C406.1 161.589 407 162.295 407 162.57ZM422.5 175.149C428.369 181.313 428.325 181.288 420.5 174.025C409.825 164.117 410.088 164.39 413.5 166.762C415.15 167.909 419.2 171.683 422.5 175.149ZM248 168.279C248 168.432 244.962 171.47 241.25 175.029L234.5 181.5L240.971 174.75C246.982 168.48 248 167.543 248 168.279ZM105.75 370.75C105.604 406.913 105.485 377.325 105.485 305C105.485 232.675 105.604 203.088 105.75 239.25C105.895 275.413 105.895 334.588 105.75 370.75ZM320.25 178.706C319.012 178.944 316.988 178.944 315.75 178.706C314.512 178.467 315.525 178.272 318 178.272C320.475 178.272 321.488 178.467 320.25 178.706ZM344.762 178.687C343.806 178.937 342.006 178.946 340.762 178.707C339.518 178.468 340.3 178.263 342.5 178.252C344.7 178.241 345.718 178.437 344.762 178.687ZM310.25 179.662C309.563 179.94 308.438 179.94 307.75 179.662C307.063 179.385 307.625 179.158 309 179.158C310.375 179.158 310.938 179.385 310.25 179.662ZM352.729 179.604C352.397 179.936 351.534 179.972 350.813 179.683C350.015 179.364 350.252 179.127 351.417 179.079C352.471 179.036 353.061 179.272 352.729 179.604ZM304.729 180.604C304.397 180.936 303.534 180.972 302.813 180.683C302.015 180.364 302.252 180.127 303.417 180.079C304.471 180.036 305.061 180.272 304.729 180.604ZM357.729 180.604C357.397 180.936 356.534 180.972 355.813 180.683C355.015 180.364 355.252 180.127 356.417 180.079C357.471 180.036 358.061 180.272 357.729 180.604ZM231.809 187C228.624 192.124 227.001 193.776 229.107 189.75C230.615 186.867 234.019 182 234.527 182C234.742 182 233.519 184.25 231.809 187ZM430.128 183.75C431.371 185.336 431.336 185.371 429.75 184.128C428.788 183.373 428 182.585 428 182.378C428 181.555 428.821 182.084 430.128 183.75ZM374.559 186.555C376.389 188.022 376.357 188.042 374 186.92C370.939 185.462 370.372 185 371.642 185C372.179 185 373.491 185.7 374.559 186.555ZM434.049 190.097C435.199 192.35 435.968 194.365 435.758 194.575C435.549 194.785 434.398 192.941 433.202 190.478C430.476 184.869 431.213 184.537 434.049 190.097ZM381.567 191.109C381.941 191.713 381.066 191.434 379.623 190.489C378.18 189.543 377 188.581 377 188.35C377 187.626 380.854 189.955 381.567 191.109ZM276 192.297C276 192.46 274.087 194.373 271.75 196.547L267.5 200.5L271.453 196.25C275.129 192.298 276 191.54 276 192.297ZM392 200.708C392 201.459 391.102 200.665 386.958 196.25L382.5 191.5L387.25 195.958C389.863 198.41 392 200.548 392 200.708ZM227.122 195.675C225.943 197.702 225.659 197.053 226.624 194.539C226.966 193.645 227.458 193.124 227.715 193.382C227.973 193.639 227.706 194.671 227.122 195.675ZM438.662 205.25C438.385 205.938 438.158 205.375 438.158 204C438.158 202.625 438.385 202.063 438.662 202.75C438.94 203.438 438.94 204.563 438.662 205.25ZM397 208C397.589 209.1 397.845 210 397.57 210C397.295 210 396.589 209.1 396 208C395.411 206.9 395.155 206 395.43 206C395.705 206 396.411 206.9 397 208ZM439.725 216.232C439.502 218.029 439.315 216.8 439.31 213.5C439.304 210.2 439.486 208.729 439.715 210.232C439.943 211.735 439.947 214.435 439.725 216.232ZM221.693 216.731C221.439 217.704 221.215 217.15 221.195 215.5C221.175 213.85 221.382 213.054 221.656 213.731C221.93 214.408 221.947 215.758 221.693 216.731ZM261.693 218.731C261.439 219.704 261.215 219.15 261.195 217.5C261.175 215.85 261.382 215.054 261.656 215.731C261.93 216.408 261.947 217.758 261.693 218.731ZM261.689 231.75C261.438 232.713 261.232 231.925 261.232 230C261.232 228.075 261.438 227.287 261.689 228.25C261.941 229.213 261.941 230.787 261.689 231.75ZM436 229.304C436 229.471 434.313 231.158 432.25 233.054L428.5 236.5L431.946 232.75C435.154 229.26 436 228.54 436 229.304ZM221.689 236.75C221.438 237.713 221.232 236.925 221.232 235C221.232 233.075 221.438 232.287 221.689 233.25C221.941 234.213 221.941 235.787 221.689 236.75ZM262.683 237.188C262.364 237.985 262.127 237.748 262.079 236.583C262.036 235.529 262.272 234.939 262.604 235.271C262.936 235.603 262.972 236.466 262.683 237.188ZM406.683 238.188C406.364 238.985 406.127 238.748 406.079 237.583C406.036 236.529 406.272 235.939 406.604 236.271C406.936 236.603 406.972 237.466 406.683 238.188ZM420.729 239.604C420.397 239.936 419.534 239.972 418.813 239.683C418.015 239.364 418.252 239.127 419.417 239.079C420.471 239.036 421.061 239.272 420.729 239.604ZM222.683 242.188C222.364 242.985 222.127 242.748 222.079 241.583C222.036 240.529 222.272 239.939 222.604 240.271C222.936 240.603 222.972 241.466 222.683 242.188ZM414.264 240.704C413.034 240.941 410.784 240.947 409.264 240.718C407.744 240.488 408.75 240.294 411.5 240.286C414.25 240.279 415.494 240.467 414.264 240.704ZM266.382 245.552C266.723 246.442 266.555 246.843 265.989 246.493C265.445 246.157 265 245.459 265 244.941C265 243.503 265.717 243.82 266.382 245.552ZM276 256.708C276 257.459 275.102 256.665 270.958 252.25L266.5 247.5L271.25 251.958C273.863 254.41 276 256.548 276 256.708ZM290.571 264.762C290.122 265.211 280 260.167 280 259.494C280 259.234 282.462 260.229 285.472 261.705C288.482 263.182 290.776 264.557 290.571 264.762ZM234.128 267.75C235.371 269.336 235.336 269.371 233.75 268.128C232.084 266.821 231.555 266 232.378 266C232.585 266 233.373 266.788 234.128 267.75ZM240.5 275C243.209 277.75 245.2 280 244.925 280C244.65 280 242.209 277.75 239.5 275C236.791 272.25 234.8 270 235.075 270C235.35 270 237.791 272.25 240.5 275ZM330.729 276.604C330.397 276.936 329.534 276.972 328.813 276.683C328.015 276.364 328.252 276.127 329.417 276.079C330.471 276.036 331.061 276.272 330.729 276.604ZM339.729 278.604C339.397 278.936 338.534 278.972 337.813 278.683C337.015 278.364 337.252 278.127 338.417 278.079C339.471 278.036 340.061 278.272 339.729 278.604ZM248.128 281.75C249.371 283.336 249.336 283.371 247.75 282.128C246.788 281.373 246 280.585 246 280.378C246 279.555 246.821 280.084 248.128 281.75ZM258 288.689C258 289.411 251.914 285.582 250.673 284.08C250.028 283.299 251.413 283.921 253.75 285.463C256.087 287.004 258 288.456 258 288.689ZM269.575 294.758C269.123 295.211 261 291.17 261 290.493C261 290.236 263.015 291.005 265.478 292.202C267.941 293.398 269.785 294.549 269.575 294.758ZM409.05 300.526C410.672 301.365 412 302.276 412 302.551C412 302.999 406.112 300.294 405.083 299.373C404.072 298.468 406.352 299.131 409.05 300.526ZM419 306.57C419 306.845 418.1 306.589 417 306C415.9 305.411 415 304.705 415 304.43C415 304.155 415.9 304.411 417 305C418.1 305.589 419 306.295 419 306.57ZM425.128 310.75C426.371 312.336 426.336 312.371 424.75 311.128C423.084 309.821 422.555 309 423.378 309C423.585 309 424.373 309.788 425.128 310.75ZM324.729 311.604C324.397 311.936 323.534 311.972 322.813 311.683C322.015 311.364 322.252 311.127 323.417 311.079C324.471 311.036 325.061 311.272 324.729 311.604ZM440.24 325.5C442.623 328.931 442.71 329.014 433.471 319C426.879 311.855 426.826 311.76 432.353 317C435.545 320.025 439.093 323.85 440.24 325.5ZM333.729 313.604C333.397 313.936 332.534 313.972 331.813 313.683C331.015 313.364 331.252 313.127 332.417 313.079C333.471 313.036 334.061 313.272 333.729 313.604ZM380 327C380.825 327.533 381.05 327.969 380.5 327.969C379.95 327.969 378.825 327.533 378 327C377.175 326.467 376.95 326.031 377.5 326.031C378.05 326.031 379.175 326.467 380 327ZM386 329.5C387.375 330.286 388.05 330.929 387.5 330.929C386.95 330.929 385.375 330.286 384 329.5C382.625 328.714 381.95 328.071 382.5 328.071C383.05 328.071 384.625 328.714 386 329.5ZM445.049 333.097C446.199 335.35 446.968 337.365 446.758 337.575C446.549 337.785 445.398 335.941 444.202 333.478C441.476 327.869 442.213 327.537 445.049 333.097ZM393 333.57C393 333.845 392.1 333.589 391 333C389.9 332.411 389 331.705 389 331.43C389 331.155 389.9 331.411 391 332C392.1 332.589 393 333.295 393 333.57ZM406 344.708C406 345.459 405.102 344.665 400.958 340.25L396.5 335.5L401.25 339.958C403.863 342.41 406 344.548 406 344.708ZM448.969 342.5C448.969 343.05 448.533 342.825 448 342C447.467 341.175 447.031 340.05 447.031 339.5C447.031 338.95 447.467 339.175 448 340C448.533 340.825 448.969 341.95 448.969 342.5ZM250.985 345.75C250.975 346.907 250.716 347.102 250.222 346.324C249.81 345.678 247.68 344.966 245.487 344.743C241.538 344.34 241.545 344.335 246.25 344.168C250.176 344.029 250.997 344.303 250.985 345.75ZM449.683 346.188C449.364 346.985 449.127 346.748 449.079 345.583C449.036 344.529 449.272 343.939 449.604 344.271C449.936 344.603 449.972 345.466 449.683 346.188ZM450.683 350.188C450.364 350.985 450.127 350.748 450.079 349.583C450.036 348.529 450.272 347.939 450.604 348.271C450.936 348.603 450.972 349.466 450.683 350.188ZM228 350.313C228 350.485 226.538 351.948 224.75 353.563L221.5 356.5L224.437 353.25C227.175 350.221 228 349.54 228 350.313ZM451.693 356.731C451.439 357.704 451.215 357.15 451.195 355.5C451.175 353.85 451.382 353.054 451.656 353.731C451.93 354.408 451.947 355.758 451.693 356.731ZM251.693 357.731C251.439 358.704 251.215 358.15 251.195 356.5C251.175 354.85 251.382 354.054 251.656 354.731C251.93 355.408 251.947 356.758 251.693 357.731ZM220.305 360.487C219.39 362.406 218.464 363.797 218.247 363.58C217.79 363.123 220.825 357 221.51 357C221.761 357 221.219 358.569 220.305 360.487ZM412.733 372.224C412.522 374.576 412.346 372.9 412.343 368.5C412.339 364.1 412.512 362.176 412.727 364.224C412.942 366.272 412.945 369.872 412.733 372.224ZM452.728 371.75C452.513 373.813 452.336 372.125 452.336 368C452.336 363.875 452.513 362.188 452.728 364.25C452.944 366.313 452.944 369.688 452.728 371.75ZM252.683 364.188C252.364 364.985 252.127 364.748 252.079 363.583C252.036 362.529 252.272 361.939 252.604 362.271C252.936 362.603 252.972 363.466 252.683 364.188ZM217.683 367.188C217.364 367.985 217.127 367.748 217.079 366.583C217.036 365.529 217.272 364.939 217.604 365.271C217.936 365.603 217.972 366.466 217.683 367.188ZM253.683 368.188C253.364 368.985 253.127 368.748 253.079 367.583C253.036 366.529 253.272 365.939 253.604 366.271C253.936 366.603 253.972 367.466 253.683 368.188ZM216.732 382.25C216.522 384.587 216.349 382.675 216.349 378C216.349 373.325 216.522 371.413 216.732 373.75C216.943 376.087 216.943 379.913 216.732 382.25ZM255.914 374.5C255.945 375.05 255.533 374.825 255 374C254.467 373.175 254.055 371.825 254.086 371C254.144 369.416 255.81 372.606 255.914 374.5ZM451.662 382.25C451.385 382.938 451.158 382.375 451.158 381C451.158 379.625 451.385 379.063 451.662 379.75C451.94 380.438 451.94 381.563 451.662 382.25ZM264.529 390.5C266.739 393.445 267.298 394.6 265.89 393.31C264.576 392.105 262.643 389.63 261.594 387.81C259.198 383.647 259.808 384.206 264.529 390.5ZM450.683 387.188C450.364 387.985 450.127 387.748 450.079 386.583C450.036 385.529 450.272 384.939 450.604 385.271C450.936 385.603 450.972 386.466 450.683 387.188ZM409 388.809C409 389.254 408.318 390.491 407.484 391.559C406.078 393.359 406.053 393.3 407.144 390.75C408.322 387.999 409 387.289 409 388.809ZM449.683 391.188C449.364 391.985 449.127 391.748 449.079 390.583C449.036 389.529 449.272 388.939 449.604 389.271C449.936 389.603 449.972 390.466 449.683 391.188ZM406 394.378C406 394.585 405.212 395.373 404.25 396.128C402.664 397.371 402.629 397.336 403.872 395.75C405.179 394.084 406 393.555 406 394.378ZM270.128 397.75C271.371 399.336 271.336 399.371 269.75 398.128C268.084 396.821 267.555 396 268.378 396C268.585 396 269.373 396.788 270.128 397.75ZM445.049 402.903C442.213 408.463 441.476 408.131 444.202 402.522C445.398 400.059 446.549 398.215 446.758 398.425C446.968 398.635 446.199 400.65 445.049 402.903ZM282 406.766C282.275 407.066 281.011 406.454 279.19 405.406C277.37 404.357 274.895 402.424 273.69 401.11C272.4 399.702 273.555 400.261 276.5 402.471C279.25 404.534 281.725 406.467 282 406.766ZM402 399.378C402 399.585 401.212 400.373 400.25 401.128C398.664 402.371 398.629 402.336 399.872 400.75C401.179 399.084 402 398.555 402 399.378ZM398 402.378C398 402.585 397.212 403.373 396.25 404.128C394.664 405.371 394.629 405.336 395.872 403.75C397.179 402.084 398 401.555 398 402.378ZM289.58 410.753C289.123 411.21 283 408.175 283 407.49C283 407.239 284.569 407.781 286.487 408.695C288.406 409.61 289.797 410.536 289.58 410.753ZM389.559 408.532C388.491 409.339 387.141 409.984 386.559 409.965C385.976 409.945 386.625 409.286 388 408.5C391.239 406.648 392.028 406.664 389.559 408.532ZM440 411.378C440 411.585 439.212 412.373 438.25 413.128C436.664 414.371 436.629 414.336 437.872 412.75C439.179 411.084 440 410.555 440 411.378ZM304.729 415.604C304.397 415.936 303.534 415.972 302.813 415.683C302.015 415.364 302.252 415.127 303.417 415.079C304.471 415.036 305.061 415.272 304.729 415.604ZM370.729 415.604C370.397 415.936 369.534 415.972 368.813 415.683C368.015 415.364 368.252 415.127 369.417 415.079C370.471 415.036 371.061 415.272 370.729 415.604ZM437 415.284C437 415.44 434.413 418.028 431.25 421.034L425.5 426.5L430.966 420.75C436.044 415.408 437 414.542 437 415.284ZM308.729 416.604C308.397 416.936 307.534 416.972 306.813 416.683C306.015 416.364 306.252 416.127 307.417 416.079C308.471 416.036 309.061 416.272 308.729 416.604ZM365.729 416.604C365.397 416.936 364.534 416.972 363.813 416.683C363.015 416.364 363.252 416.127 364.417 416.079C365.471 416.036 366.061 416.272 365.729 416.604ZM314.729 417.604C314.397 417.936 313.534 417.972 312.813 417.683C312.015 417.364 312.252 417.127 313.417 417.079C314.471 417.036 315.061 417.272 314.729 417.604ZM360.269 417.656C359.592 417.93 358.242 417.947 357.269 417.693C356.296 417.439 356.85 417.215 358.5 417.195C360.15 417.175 360.946 417.382 360.269 417.656ZM324.762 418.687C323.806 418.937 322.006 418.946 320.762 418.707C319.518 418.468 320.3 418.263 322.5 418.252C324.7 418.241 325.718 418.437 324.762 418.687ZM351.264 418.704C350.034 418.941 347.784 418.947 346.264 418.718C344.744 418.488 345.75 418.294 348.5 418.286C351.25 418.279 352.494 418.467 351.264 418.704ZM424 427.378C424 427.585 423.212 428.373 422.25 429.128C420.664 430.371 420.629 430.336 421.872 428.75C423.179 427.084 424 426.555 424 427.378ZM381.729 447.604C381.397 447.936 380.534 447.972 379.813 447.683C379.015 447.364 379.252 447.127 380.417 447.079C381.471 447.036 382.061 447.272 381.729 447.604ZM372.25 449.662C371.563 449.94 370.438 449.94 369.75 449.662C369.063 449.385 369.625 449.158 371 449.158C372.375 449.158 372.938 449.385 372.25 449.662ZM366.25 450.662C365.563 450.94 364.438 450.94 363.75 450.662C363.063 450.385 363.625 450.158 365 450.158C366.375 450.158 366.938 450.385 366.25 450.662ZM123.729 451.604C123.397 451.936 122.534 451.972 121.813 451.683C121.015 451.364 121.252 451.127 122.417 451.079C123.471 451.036 124.061 451.272 123.729 451.604ZM310.729 451.604C310.397 451.936 309.534 451.972 308.813 451.683C308.015 451.364 308.252 451.127 309.417 451.079C310.471 451.036 311.061 451.272 310.729 451.604ZM358.75 451.689C357.788 451.941 356.212 451.941 355.25 451.689C354.288 451.438 355.075 451.232 357 451.232C358.925 451.232 359.712 451.438 358.75 451.689ZM341.25 452.744C336.712 452.929 329.288 452.929 324.75 452.744C320.212 452.559 323.925 452.407 333 452.407C342.075 452.407 345.788 452.559 341.25 452.744Z" fill="#297EA6"/>
<path fill-rule="evenodd" clip-rule="evenodd" d="M138.489 81.0021L10.4999 150.926L10.2469 290.826L9.99292 430.726L137.747 500.529C208.011 538.92 265.95 570.32 266.5 570.307C267.05 570.295 324.987 538.861 395.25 500.455L523 430.627V290.959V151.292L399.75 83.9871C331.962 46.9691 274.245 15.4211 271.489 13.8801L266.477 11.0781L138.489 81.0021ZM338.75 144.743C334.488 144.931 327.512 144.931 323.25 144.743C318.988 144.556 322.475 144.402 331 144.402C339.525 144.402 343.012 144.556 338.75 144.743ZM310.269 145.656C309.592 145.93 308.242 145.947 307.269 145.693C306.296 145.439 306.85 145.215 308.5 145.195C310.15 145.175 310.946 145.382 310.269 145.656ZM354.25 145.662C353.563 145.94 352.438 145.94 351.75 145.662C351.063 145.385 351.625 145.158 353 145.158C354.375 145.158 354.938 145.385 354.25 145.662ZM302.25 146.662C301.563 146.94 300.438 146.94 299.75 146.662C299.063 146.385 299.625 146.158 301 146.158C302.375 146.158 302.938 146.385 302.25 146.662ZM361.729 146.604C361.397 146.936 360.534 146.972 359.813 146.683C359.015 146.364 359.252 146.127 360.417 146.079C361.471 146.036 362.061 146.272 361.729 146.604ZM146 281.5V416H188.122C228.095 416 230.175 415.911 228.872 414.25C227.629 412.664 227.664 412.629 229.25 413.872C230.212 414.627 231 415.64 231 416.122C231 416.612 212 417 188 417H145V282.555V148.11L140.25 147.735L135.5 147.36L140.75 147.18L146 147V281.5ZM296.729 147.604C296.397 147.936 295.534 147.972 294.813 147.683C294.015 147.364 294.252 147.127 295.417 147.079C296.471 147.036 297.061 147.272 296.729 147.604ZM132.729 148.604C132.397 148.936 131.534 148.972 130.813 148.683C130.015 148.364 130.252 148.127 131.417 148.079C132.471 148.036 133.061 148.272 132.729 148.604ZM371.729 148.604C371.397 148.936 370.534 148.972 369.813 148.683C369.015 148.364 369.252 148.127 370.417 148.079C371.471 148.036 372.061 148.272 371.729 148.604ZM117 154.304C117 154.471 115.313 156.158 113.25 158.054L109.5 161.5L112.946 157.75C116.154 154.26 117 153.54 117 154.304ZM397 157C397.825 157.533 398.05 157.969 397.5 157.969C396.95 157.969 395.825 157.533 395 157C394.175 156.467 393.95 156.031 394.5 156.031C395.05 156.031 396.175 156.467 397 157ZM407 162.57C407 162.845 406.1 162.589 405 162C403.9 161.411 403 160.705 403 160.43C403 160.155 403.9 160.411 405 161C406.1 161.589 407 162.295 407 162.57ZM422.5 175.149C428.369 181.313 428.325 181.288 420.5 174.025C409.825 164.117 410.088 164.39 413.5 166.762C415.15 167.909 419.2 171.683 422.5 175.149ZM248 168.279C248 168.432 244.962 171.47 241.25 175.029L234.5 181.5L240.971 174.75C246.982 168.48 248 167.543 248 168.279ZM105.75 370.75C105.604 406.913 105.485 377.325 105.485 305C105.485 232.675 105.604 203.088 105.75 239.25C105.895 275.413 105.895 334.588 105.75 370.75ZM320.25 178.706C319.012 178.944 316.988 178.944 315.75 178.706C314.512 178.467 315.525 178.272 318 178.272C320.475 178.272 321.488 178.467 320.25 178.706ZM344.762 178.687C343.806 178.937 342.006 178.946 340.762 178.707C339.518 178.468 340.3 178.263 342.5 178.252C344.7 178.241 345.718 178.437 344.762 178.687ZM310.25 179.662C309.563 179.94 308.438 179.94 307.75 179.662C307.063 179.385 307.625 179.158 309 179.158C310.375 179.158 310.938 179.385 310.25 179.662ZM352.729 179.604C352.397 179.936 351.534 179.972 350.813 179.683C350.015 179.364 350.252 179.127 351.417 179.079C352.471 179.036 353.061 179.272 352.729 179.604ZM304.729 180.604C304.397 180.936 303.534 180.972 302.813 180.683C302.015 180.364 302.252 180.127 303.417 180.079C304.471 180.036 305.061 180.272 304.729 180.604ZM357.729 180.604C357.397 180.936 356.534 180.972 355.813 180.683C355.015 180.364 355.252 180.127 356.417 180.079C357.471 180.036 358.061 180.272 357.729 180.604ZM231.809 187C228.624 192.124 227.001 193.776 229.107 189.75C230.615 186.867 234.019 182 234.527 182C234.742 182 233.519 184.25 231.809 187ZM430.128 183.75C431.371 185.336 431.336 185.371 429.75 184.128C428.788 183.373 428 182.585 428 182.378C428 181.555 428.821 182.084 430.128 183.75ZM374.559 186.555C376.389 188.022 376.357 188.042 374 186.92C370.939 185.462 370.372 185 371.642 185C372.179 185 373.491 185.7 374.559 186.555ZM434.049 190.097C435.199 192.35 435.968 194.365 435.758 194.575C435.549 194.785 434.398 192.941 433.202 190.478C430.476 184.869 431.213 184.537 434.049 190.097ZM381.567 191.109C381.941 191.713 381.066 191.434 379.623 190.489C378.18 189.543 377 188.581 377 188.35C377 187.626 380.854 189.955 381.567 191.109ZM276 192.297C276 192.46 274.087 194.373 271.75 196.547L267.5 200.5L271.453 196.25C275.129 192.298 276 191.54 276 192.297ZM392 200.708C392 201.459 391.102 200.665 386.958 196.25L382.5 191.5L387.25 195.958C389.863 198.41 392 200.548 392 200.708ZM227.122 195.675C225.943 197.702 225.659 197.053 226.624 194.539C226.966 193.645 227.458 193.124 227.715 193.382C227.973 193.639 227.706 194.671 227.122 195.675ZM438.662 205.25C438.385 205.938 438.158 205.375 438.158 204C438.158 202.625 438.385 202.063 438.662 202.75C438.94 203.438 438.94 204.563 438.662 205.25ZM397 208C397.589 209.1 397.845 210 397.57 210C397.295 210 396.589 209.1 396 208C395.411 206.9 395.155 206 395.43 206C395.705 206 396.411 206.9 397 208ZM439.725 216.232C439.502 218.029 439.315 216.8 439.31 213.5C439.304 210.2 439.486 208.729 439.715 210.232C439.943 211.735 439.947 214.435 439.725 216.232ZM221.693 216.731C221.439 217.704 221.215 217.15 221.195 215.5C221.175 213.85 221.382 213.054 221.656 213.731C221.93 214.408 221.947 215.758 221.693 216.731ZM261.693 218.731C261.439 219.704 261.215 219.15 261.195 217.5C261.175 215.85 261.382 215.054 261.656 215.731C261.93 216.408 261.947 217.758 261.693 218.731ZM261.689 231.75C261.438 232.713 261.232 231.925 261.232 230C261.232 228.075 261.438 227.287 261.689 228.25C261.941 229.213 261.941 230.787 261.689 231.75ZM436 229.304C436 229.471 434.313 231.158 432.25 233.054L428.5 236.5L431.946 232.75C435.154 229.26 436 228.54 436 229.304ZM221.689 236.75C221.438 237.713 221.232 236.925 221.232 235C221.232 233.075 221.438 232.287 221.689 233.25C221.941 234.213 221.941 235.787 221.689 236.75ZM262.683 237.188C262.364 237.985 262.127 237.748 262.079 236.583C262.036 235.529 262.272 234.939 262.604 235.271C262.936 235.603 262.972 236.466 262.683 237.188ZM406.683 238.188C406.364 238.985 406.127 238.748 406.079 237.583C406.036 236.529 406.272 235.939 406.604 236.271C406.936 236.603 406.972 237.466 406.683 238.188ZM420.729 239.604C420.397 239.936 419.534 239.972 418.813 239.683C418.015 239.364 418.252 239.127 419.417 239.079C420.471 239.036 421.061 239.272 420.729 239.604ZM222.683 242.188C222.364 242.985 222.127 242.748 222.079 241.583C222.036 240.529 222.272 239.939 222.604 240.271C222.936 240.603 222.972 241.466 222.683 242.188ZM414.264 240.704C413.034 240.941 410.784 240.947 409.264 240.718C407.744 240.488 408.75 240.294 411.5 240.286C414.25 240.279 415.494 240.467 414.264 240.704ZM266.382 245.552C266.723 246.442 266.555 246.843 265.989 246.493C265.445 246.157 265 245.459 265 244.941C265 243.503 265.717 243.82 266.382 245.552ZM276 256.708C276 257.459 275.102 256.665 270.958 252.25L266.5 247.5L271.25 251.958C273.863 254.41 276 256.548 276 256.708ZM290.571 264.762C290.122 265.211 280 260.167 280 259.494C280 259.234 282.462 260.229 285.472 261.705C288.482 263.182 290.776 264.557 290.571 264.762ZM234.128 267.75C235.371 269.336 235.336 269.371 233.75 268.128C232.084 266.821 231.555 266 232.378 266C232.585 266 233.373 266.788 234.128 267.75ZM240.5 275C243.209 277.75 245.2 280 244.925 280C244.65 280 242.209 277.75 239.5 275C236.791 272.25 234.8 270 235.075 270C235.35 270 237.791 272.25 240.5 275ZM330.729 276.604C330.397 276.936 329.534 276.972 328.813 276.683C328.015 276.364 328.252 276.127 329.417 276.079C330.471 276.036 331.061 276.272 330.729 276.604ZM339.729 278.604C339.397 278.936 338.534 278.972 337.813 278.683C337.015 278.364 337.252 278.127 338.417 278.079C339.471 278.036 340.061 278.272 339.729 278.604ZM248.128 281.75C249.371 283.336 249.336 283.371 247.75 282.128C246.788 281.373 246 280.585 246 280.378C246 279.555 246.821 280.084 248.128 281.75ZM258 288.689C258 289.411 251.914 285.582 250.673 284.08C250.028 283.299 251.413 283.921 253.75 285.463C256.087 287.004 258 288.456 258 288.689ZM269.575 294.758C269.123 295.211 261 291.17 261 290.493C261 290.236 263.015 291.005 265.478 292.202C267.941 293.398 269.785 294.549 269.575 294.758ZM409.05 300.526C410.672 301.365 412 302.276 412 302.551C412 302.999 406.112 300.294 405.083 299.373C404.072 298.468 406.352 299.131 409.05 300.526ZM419 306.57C419 306.845 418.1 306.589 417 306C415.9 305.411 415 304.705 415 304.43C415 304.155 415.9 304.411 417 305C418.1 305.589 419 306.295 419 306.57ZM425.128 310.75C426.371 312.336 426.336 312.371 424.75 311.128C423.084 309.821 422.555 309 423.378 309C423.585 309 424.373 309.788 425.128 310.75ZM324.729 311.604C324.397 311.936 323.534 311.972 322.813 311.683C322.015 311.364 322.252 311.127 323.417 311.079C324.471 311.036 325.061 311.272 324.729 311.604ZM440.24 325.5C442.623 328.931 442.71 329.014 433.471 319C426.879 311.855 426.826 311.76 432.353 317C435.545 320.025 439.093 323.85 440.24 325.5ZM333.729 313.604C333.397 313.936 332.534 313.972 331.813 313.683C331.015 313.364 331.252 313.127 332.417 313.079C333.471 313.036 334.061 313.272 333.729 313.604ZM380 327C380.825 327.533 381.05 327.969 380.5 327.969C379.95 327.969 378.825 327.533 378 327C377.175 326.467 376.95 326.031 377.5 326.031C378.05 326.031 379.175 326.467 380 327ZM386 329.5C387.375 330.286 388.05 330.929 387.5 330.929C386.95 330.929 385.375 330.286 384 329.5C382.625 328.714 381.95 328.071 382.5 328.071C383.05 328.071 384.625 328.714 386 329.5ZM445.049 333.097C446.199 335.35 446.968 337.365 446.758 337.575C446.549 337.785 445.398 335.941 444.202 333.478C441.476 327.869 442.213 327.537 445.049 333.097ZM393 333.57C393 333.845 392.1 333.589 391 333C389.9 332.411 389 331.705 389 331.43C389 331.155 389.9 331.411 391 332C392.1 332.589 393 333.295 393 333.57ZM406 344.708C406 345.459 405.102 344.665 400.958 340.25L396.5 335.5L401.25 339.958C403.863 342.41 406 344.548 406 344.708ZM448.969 342.5C448.969 343.05 448.533 342.825 448 342C447.467 341.175 447.031 340.05 447.031 339.5C447.031 338.95 447.467 339.175 448 340C448.533 340.825 448.969 341.95 448.969 342.5ZM250.985 345.75C250.975 346.907 250.716 347.102 250.222 346.324C249.81 345.678 247.68 344.966 245.487 344.743C241.538 344.34 241.545 344.335 246.25 344.168C250.176 344.029 250.997 344.303 250.985 345.75ZM449.683 346.188C449.364 346.985 449.127 346.748 449.079 345.583C449.036 344.529 449.272 343.939 449.604 344.271C449.936 344.603 449.972 345.466 449.683 346.188ZM450.683 350.188C450.364 350.985 450.127 350.748 450.079 349.583C450.036 348.529 450.272 347.939 450.604 348.271C450.936 348.603 450.972 349.466 450.683 350.188ZM228 350.313C228 350.485 226.538 351.948 224.75 353.563L221.5 356.5L224.437 353.25C227.175 350.221 228 349.54 228 350.313ZM451.693 356.731C451.439 357.704 451.215 357.15 451.195 355.5C451.175 353.85 451.382 353.054 451.656 353.731C451.93 354.408 451.947 355.758 451.693 356.731ZM251.693 357.731C251.439 358.704 251.215 358.15 251.195 356.5C251.175 354.85 251.382 354.054 251.656 354.731C251.93 355.408 251.947 356.758 251.693 357.731ZM220.305 360.487C219.39 362.406 218.464 363.797 218.247 363.58C217.79 363.123 220.825 357 221.51 357C221.761 357 221.219 358.569 220.305 360.487ZM412.733 372.224C412.522 374.576 412.346 372.9 412.343 368.5C412.339 364.1 412.512 362.176 412.727 364.224C412.942 366.272 412.945 369.872 412.733 372.224ZM452.728 371.75C452.513 373.813 452.336 372.125 452.336 368C452.336 363.875 452.513 362.188 452.728 364.25C452.944 366.313 452.944 369.688 452.728 371.75ZM252.683 364.188C252.364 364.985 252.127 364.748 252.079 363.583C252.036 362.529 252.272 361.939 252.604 362.271C252.936 362.603 252.972 363.466 252.683 364.188ZM217.683 367.188C217.364 367.985 217.127 367.748 217.079 366.583C217.036 365.529 217.272 364.939 217.604 365.271C217.936 365.603 217.972 366.466 217.683 367.188ZM253.683 368.188C253.364 368.985 253.127 368.748 253.079 367.583C253.036 366.529 253.272 365.939 253.604 366.271C253.936 366.603 253.972 367.466 253.683 368.188ZM216.732 382.25C216.522 384.587 216.349 382.675 216.349 378C216.349 373.325 216.522 371.413 216.732 373.75C216.943 376.087 216.943 379.913 216.732 382.25ZM255.914 374.5C255.945 375.05 255.533 374.825 255 374C254.467 373.175 254.055 371.825 254.086 371C254.144 369.416 255.81 372.606 255.914 374.5ZM451.662 382.25C451.385 382.938 451.158 382.375 451.158 381C451.158 379.625 451.385 379.063 451.662 379.75C451.94 380.438 451.94 381.563 451.662 382.25ZM264.529 390.5C266.739 393.445 267.298 394.6 265.89 393.31C264.576 392.105 262.643 389.63 261.594 387.81C259.198 383.647 259.808 384.206 264.529 390.5ZM450.683 387.188C450.364 387.985 450.127 387.748 450.079 386.583C450.036 385.529 450.272 384.939 450.604 385.271C450.936 385.603 450.972 386.466 450.683 387.188ZM409 388.809C409 389.254 408.318 390.491 407.484 391.559C406.078 393.359 406.053 393.3 407.144 390.75C408.322 387.999 409 387.289 409 388.809ZM449.683 391.188C449.364 391.985 449.127 391.748 449.079 390.583C449.036 389.529 449.272 388.939 449.604 389.271C449.936 389.603 449.972 390.466 449.683 391.188ZM406 394.378C406 394.585 405.212 395.373 404.25 396.128C402.664 397.371 402.629 397.336 403.872 395.75C405.179 394.084 406 393.555 406 394.378ZM270.128 397.75C271.371 399.336 271.336 399.371 269.75 398.128C268.084 396.821 267.555 396 268.378 396C268.585 396 269.373 396.788 270.128 397.75ZM445.049 402.903C442.213 408.463 441.476 408.131 444.202 402.522C445.398 400.059 446.549 398.215 446.758 398.425C446.968 398.635 446.199 400.65 445.049 402.903ZM282 406.766C282.275 407.066 281.011 406.454 279.19 405.406C277.37 404.357 274.895 402.424 273.69 401.11C272.4 399.702 273.555 400.261 276.5 402.471C279.25 404.534 281.725 406.467 282 406.766ZM402 399.378C402 399.585 401.212 400.373 400.25 401.128C398.664 402.371 398.629 402.336 399.872 400.75C401.179 399.084 402 398.555 402 399.378ZM398 402.378C398 402.585 397.212 403.373 396.25 404.128C394.664 405.371 394.629 405.336 395.872 403.75C397.179 402.084 398 401.555 398 402.378ZM289.58 410.753C289.123 411.21 283 408.175 283 407.49C283 407.239 284.569 407.781 286.487 408.695C288.406 409.61 289.797 410.536 289.58 410.753ZM389.559 408.532C388.491 409.339 387.141 409.984 386.559 409.965C385.976 409.945 386.625 409.286 388 408.5C391.239 406.648 392.028 406.664 389.559 408.532ZM440 411.378C440 411.585 439.212 412.373 438.25 413.128C436.664 414.371 436.629 414.336 437.872 412.75C439.179 411.084 440 410.555 440 411.378ZM304.729 415.604C304.397 415.936 303.534 415.972 302.813 415.683C302.015 415.364 302.252 415.127 303.417 415.079C304.471 415.036 305.061 415.272 304.729 415.604ZM370.729 415.604C370.397 415.936 369.534 415.972 368.813 415.683C368.015 415.364 368.252 415.127 369.417 415.079C370.471 415.036 371.061 415.272 370.729 415.604ZM437 415.284C437 415.44 434.413 418.028 431.25 421.034L425.5 426.5L430.966 420.75C436.044 415.408 437 414.542 437 415.284ZM308.729 416.604C308.397 416.936 307.534 416.972 306.813 416.683C306.015 416.364 306.252 416.127 307.417 416.079C308.471 416.036 309.061 416.272 308.729 416.604ZM365.729 416.604C365.397 416.936 364.534 416.972 363.813 416.683C363.015 416.364 363.252 416.127 364.417 416.079C365.471 416.036 366.061 416.272 365.729 416.604ZM314.729 417.604C314.397 417.936 313.534 417.972 312.813 417.683C312.015 417.364 312.252 417.127 313.417 417.079C314.471 417.036 315.061 417.272 314.729 417.604ZM360.269 417.656C359.592 417.93 358.242 417.947 357.269 417.693C356.296 417.439 356.85 417.215 358.5 417.195C360.15 417.175 360.946 417.382 360.269 417.656ZM324.762 418.687C323.806 418.937 322.006 418.946 320.762 418.707C319.518 418.468 320.3 418.263 322.5 418.252C324.7 418.241 325.718 418.437 324.762 418.687ZM351.264 418.704C350.034 418.941 347.784 418.947 346.264 418.718C344.744 418.488 345.75 418.294 348.5 418.286C351.25 418.279 352.494 418.467 351.264 418.704ZM424 427.378C424 427.585 423.212 428.373 422.25 429.128C420.664 430.371 420.629 430.336 421.872 428.75C423.179 427.084 424 426.555 424 427.378ZM381.729 447.604C381.397 447.936 380.534 447.972 379.813 447.683C379.015 447.364 379.252 447.127 380.417 447.079C381.471 447.036 382.061 447.272 381.729 447.604ZM372.25 449.662C371.563 449.94 370.438 449.94 369.75 449.662C369.063 449.385 369.625 449.158 371 449.158C372.375 449.158 372.938 449.385 372.25 449.662ZM366.25 450.662C365.563 450.94 364.438 450.94 363.75 450.662C363.063 450.385 363.625 450.158 365 450.158C366.375 450.158 366.938 450.385 366.25 450.662ZM123.729 451.604C123.397 451.936 122.534 451.972 121.813 451.683C121.015 451.364 121.252 451.127 122.417 451.079C123.471 451.036 124.061 451.272 123.729 451.604ZM310.729 451.604C310.397 451.936 309.534 451.972 308.813 451.683C308.015 451.364 308.252 451.127 309.417 451.079C310.471 451.036 311.061 451.272 310.729 451.604ZM358.75 451.689C357.788 451.941 356.212 451.941 355.25 451.689C354.288 451.438 355.075 451.232 357 451.232C358.925 451.232 359.712 451.438 358.75 451.689ZM341.25 452.744C336.712 452.929 329.288 452.929 324.75 452.744C320.212 452.559 323.925 452.407 333 452.407C342.075 452.407 345.788 452.559 341.25 452.744Z" fill="#144A67"/>
<path fill-rule="evenodd" clip-rule="evenodd" d="M140 80.611C70.9749 118.324 13.4859 149.826 12.2469 150.616L9.99292 152.051L10.2469 291.275L10.4999 430.5L133.5 497.732C201.15 534.709 258.754 566.155 261.509 567.612L266.517 570.261L394.259 500.469L522 430.678V290.97V151.262L394.564 81.631C324.474 43.334 266.762 12.009 266.314 12.021C265.866 12.032 209.025 42.898 140 80.611ZM340.25 144.745C335.162 144.927 326.837 144.927 321.75 144.745C316.662 144.564 320.825 144.415 331 144.415C341.175 144.415 345.337 144.564 340.25 144.745ZM309.762 145.687C308.806 145.937 307.006 145.946 305.762 145.707C304.518 145.468 305.3 145.263 307.5 145.252C309.7 145.241 310.718 145.437 309.762 145.687ZM355.75 145.689C354.788 145.941 353.212 145.941 352.25 145.689C351.288 145.438 352.075 145.232 354 145.232C355.925 145.232 356.712 145.438 355.75 145.689ZM302.269 146.656C301.592 146.93 300.242 146.947 299.269 146.693C298.296 146.439 298.85 146.215 300.5 146.195C302.15 146.175 302.946 146.382 302.269 146.656ZM362.25 146.662C361.563 146.94 360.438 146.94 359.75 146.662C359.063 146.385 359.625 146.158 361 146.158C362.375 146.158 362.938 146.385 362.25 146.662ZM146 281.5V416H188.051H230.102L227.698 412.75C224.985 409.081 223.155 405.921 224.658 407.5C226.31 409.235 231 415.842 231 416.433C231 416.745 211.65 417 188 417H145V282.55V148.1L139.25 147.739L133.5 147.378L139.75 147.189L146 147V281.5ZM296.25 147.662C295.563 147.94 294.438 147.94 293.75 147.662C293.063 147.385 293.625 147.158 295 147.158C296.375 147.158 296.938 147.385 296.25 147.662ZM371 148C372.98 148.634 373.084 148.801 371.5 148.801C370.4 148.801 368.375 148.44 367 148C365.02 147.366 364.916 147.199 366.5 147.199C367.6 147.199 369.625 147.56 371 148ZM132.25 148.662C131.563 148.94 130.438 148.94 129.75 148.662C129.063 148.385 129.625 148.158 131 148.158C132.375 148.158 132.938 148.385 132.25 148.662ZM291.729 148.604C291.397 148.936 290.534 148.972 289.813 148.683C289.015 148.364 289.252 148.127 290.417 148.079C291.471 148.036 292.061 148.272 291.729 148.604ZM287.729 149.604C287.397 149.936 286.534 149.972 285.813 149.683C285.015 149.364 285.252 149.127 286.417 149.079C287.471 149.036 288.061 149.272 287.729 149.604ZM378.5 150C379.761 150.542 379.945 150.859 379 150.859C378.175 150.859 376.6 150.473 375.5 150C374.239 149.458 374.055 149.141 375 149.141C375.825 149.141 377.4 149.527 378.5 150ZM115.161 156.545C111.711 159.647 109.471 162.742 108.105 166.295C107.005 169.158 106.081 170.923 106.052 170.218C105.888 166.17 110.99 158.196 116.21 154.345C121.11 150.73 120.72 151.547 115.161 156.545ZM393.134 155.112C420.874 165.809 440.384 190.385 439.853 213.96L439.705 220.5L439.017 212C437.827 197.315 433.39 187.575 422.825 176.453C414.18 167.351 404.796 160.956 393.208 156.266C388.418 154.328 384.313 152.576 384.083 152.371C383.034 151.436 385.679 152.237 393.134 155.112ZM274 154C273.175 154.533 272.05 154.969 271.5 154.969C270.95 154.969 271.175 154.533 272 154C272.825 153.467 273.95 153.031 274.5 153.031C275.05 153.031 274.825 153.467 274 154ZM269.917 155.38C268.9 156.306 259 160.982 259 160.536C259 159.927 268.138 155.111 269.417 155.047C269.921 155.021 270.146 155.171 269.917 155.38ZM258 161.396C258 161.613 255.831 163.183 253.18 164.885C242.917 171.47 231.776 184.969 226.29 197.466C225.075 200.235 224.062 201.975 224.04 201.333C223.882 196.746 232.718 182.374 240.667 174.286C246.591 168.259 258 159.774 258 161.396ZM105.75 370.672C105.605 407.427 105.486 377.65 105.486 304.5C105.486 231.35 105.604 201.277 105.75 237.672C105.895 274.067 105.895 333.917 105.75 370.672ZM338.25 178.744C333.712 178.929 326.288 178.929 321.75 178.744C317.212 178.559 320.925 178.407 330 178.407C339.075 178.407 342.788 178.559 338.25 178.744ZM311.75 179.689C310.788 179.941 309.212 179.941 308.25 179.689C307.288 179.438 308.075 179.232 310 179.232C311.925 179.232 312.712 179.438 311.75 179.689ZM352.269 179.656C351.592 179.93 350.242 179.947 349.269 179.693C348.296 179.439 348.85 179.215 350.5 179.195C352.15 179.175 352.946 179.382 352.269 179.656ZM305.25 180.662C304.563 180.94 303.438 180.94 302.75 180.662C302.063 180.385 302.625 180.158 304 180.158C305.375 180.158 305.938 180.385 305.25 180.662ZM357.25 180.662C356.563 180.94 355.438 180.94 354.75 180.662C354.063 180.385 354.625 180.158 356 180.158C357.375 180.158 357.938 180.385 357.25 180.662ZM300.729 181.604C300.397 181.936 299.534 181.972 298.813 181.683C298.015 181.364 298.252 181.127 299.417 181.079C300.471 181.036 301.061 181.272 300.729 181.604ZM367.507 183.467C380.54 188.372 391.512 197.979 398.014 210.178C399.762 213.458 401.027 216.306 400.825 216.508C400.623 216.71 398.898 213.866 396.993 210.188C390.76 198.157 378.758 188.347 363.738 183.008C360.857 181.984 359.052 181.113 359.727 181.073C360.402 181.033 363.903 182.11 367.507 183.467ZM290 185C289.175 185.533 288.05 185.969 287.5 185.969C286.95 185.969 287.175 185.533 288 185C288.825 184.467 289.95 184.031 290.5 184.031C291.05 184.031 290.825 184.467 290 185ZM284 187.465C284 187.72 282.988 188.42 281.75 189.02C279.589 190.067 279.577 190.049 281.441 188.555C283.481 186.921 284 186.7 284 187.465ZM274.821 194.024C269.649 198.456 266.689 202.747 263.926 209.813C262.918 212.391 262.073 213.784 262.047 212.91C261.944 209.408 268.289 198.925 273.166 194.541C275.944 192.043 278.505 190.003 278.858 190.006C279.211 190.01 277.394 191.818 274.821 194.024ZM223.375 206.875C223.024 208.632 222.528 209.861 222.273 209.606C222.018 209.351 222.12 207.729 222.5 206C223.401 201.899 224.209 202.707 223.375 206.875ZM221.707 216.238C221.468 217.482 221.263 216.7 221.252 214.5C221.241 212.3 221.437 211.282 221.687 212.238C221.937 213.194 221.946 214.994 221.707 216.238ZM261.735 228.75C261.529 231.363 261.36 229.225 261.36 224C261.36 218.775 261.529 216.637 261.735 219.25C261.941 221.863 261.941 226.137 261.735 228.75ZM220.716 227.75C220.487 229.262 220.3 228.025 220.3 225C220.3 221.975 220.487 220.738 220.716 222.25C220.945 223.762 220.945 226.238 220.716 227.75ZM438.112 225.11C437.496 226.877 435.881 229.778 434.524 231.558C431.894 235.005 422.965 240.022 419.554 239.967C418.424 239.949 419.897 239.107 422.827 238.095C429.282 235.865 435.628 229.975 437.189 224.762C437.811 222.686 438.525 221.192 438.776 221.443C439.026 221.693 438.727 223.343 438.112 225.11ZM404.683 229.188C404.364 229.985 404.127 229.748 404.079 228.583C404.036 227.529 404.272 226.939 404.604 227.271C404.936 227.603 404.972 228.466 404.683 229.188ZM405.683 233.188C405.364 233.985 405.127 233.748 405.079 232.583C405.036 231.529 405.272 230.939 405.604 231.271C405.936 231.603 405.972 232.466 405.683 233.188ZM221.707 237.238C221.468 238.482 221.263 237.7 221.252 235.5C221.241 233.3 221.437 232.282 221.687 233.238C221.937 234.194 221.946 235.994 221.707 237.238ZM264.572 242.761C264.061 243.273 261.99 236.942 262.067 235.101C262.104 234.22 262.759 235.507 263.523 237.96C264.288 240.413 264.76 242.574 264.572 242.761ZM411.813 240.278L416.5 240.656L411.5 240.578C406.9 240.506 406.487 240.3 406.336 238C406.198 235.895 406.248 235.848 406.649 237.7C407.042 239.512 407.951 239.966 411.813 240.278ZM222.662 243.25C222.385 243.938 222.158 243.375 222.158 242C222.158 240.625 222.385 240.063 222.662 240.75C222.94 241.438 222.94 242.563 222.662 243.25ZM272.707 252.623C277.365 257.206 282.351 260.129 297 266.862L299.5 268.011L297 267.411C295.625 267.081 290.682 264.99 286.015 262.764C279.802 259.799 275.853 257.038 271.265 252.45C267.819 249.005 265.026 245.581 265.059 244.843C265.094 244.047 265.603 244.315 266.309 245.5C266.964 246.6 269.843 249.806 272.707 252.623ZM223.683 247.188C223.364 247.985 223.127 247.748 223.079 246.583C223.036 245.529 223.272 244.939 223.604 245.271C223.936 245.603 223.972 246.466 223.683 247.188ZM228.92 260C230.042 262.357 230.022 262.389 228.555 260.559C227.7 259.491 227 258.179 227 257.642C227 256.372 227.462 256.939 228.92 260ZM239.305 273.679C247.747 282.692 263.798 292.588 278.774 298.013C282.225 299.263 284.869 300.464 284.651 300.682C283.305 302.028 262.05 292.112 251.881 285.393C245.173 280.962 233.042 268.991 231.003 264.793C230.254 263.25 230.637 263.482 232.172 265.5C233.427 267.15 236.637 270.83 239.305 273.679ZM309 270.5C310.925 271.241 311.825 271.848 311 271.848C310.175 271.848 307.925 271.241 306 270.5C304.075 269.759 303.175 269.152 304 269.152C304.825 269.152 307.075 269.759 309 270.5ZM321.5 274.135C322.873 274.735 322.403 274.811 320 274.375C318.075 274.026 315.6 273.347 314.5 272.865C313.127 272.265 313.597 272.189 316 272.625C317.925 272.974 320.4 273.653 321.5 274.135ZM330 276C331.98 276.634 332.084 276.801 330.5 276.801C329.4 276.801 327.375 276.44 326 276C324.02 275.366 323.916 275.199 325.5 275.199C326.6 275.199 328.625 275.56 330 276ZM335.729 277.604C335.397 277.936 334.534 277.972 333.813 277.683C333.015 277.364 333.252 277.127 334.417 277.079C335.471 277.036 336.061 277.272 335.729 277.604ZM340.25 278.662C339.563 278.94 338.438 278.94 337.75 278.662C337.063 278.385 337.625 278.158 339 278.158C340.375 278.158 340.938 278.385 340.25 278.662ZM344.729 279.604C344.397 279.936 343.534 279.972 342.813 279.683C342.015 279.364 342.252 279.127 343.417 279.079C344.471 279.036 345.061 279.272 344.729 279.604ZM348.729 280.604C348.397 280.936 347.534 280.972 346.813 280.683C346.015 280.364 346.252 280.127 347.417 280.079C348.471 280.036 349.061 280.272 348.729 280.604ZM357.5 282.472C362.87 284.242 360.756 284.311 354.5 282.57C351.75 281.805 350.4 281.173 351.5 281.166C352.6 281.159 355.3 281.747 357.5 282.472ZM364.729 284.604C364.397 284.936 363.534 284.972 362.813 284.683C362.015 284.364 362.252 284.127 363.417 284.079C364.471 284.036 365.061 284.272 364.729 284.604ZM370.5 286C371.761 286.542 371.945 286.859 371 286.859C370.175 286.859 368.6 286.473 367.5 286C366.239 285.458 366.055 285.141 367 285.141C367.825 285.141 369.4 285.527 370.5 286ZM383.862 290.111C387.299 291.272 389.94 292.393 389.73 292.604C389.52 292.814 386.232 291.898 382.424 290.567C378.616 289.237 375.975 288.115 376.556 288.074C377.137 288.033 380.424 288.95 383.862 290.111ZM405.63 298.979C418.444 305.03 426.887 310.719 434.5 318.432C440.104 324.109 446.856 335.046 448.434 341C448.798 342.375 447.337 339.862 445.187 335.416C438.095 320.749 424.576 308.764 404.82 299.63C399.694 297.26 394.375 294.797 393 294.155L390.5 292.989L393 293.592C394.375 293.924 400.059 296.348 405.63 298.979ZM289.5 302C290.819 302.567 290.989 302.878 290 302.914C289.175 302.945 287.825 302.533 287 302C285.172 300.819 286.751 300.819 289.5 302ZM299.5 305C300.761 305.542 300.945 305.859 300 305.859C299.175 305.859 297.6 305.473 296.5 305C295.239 304.458 295.055 304.141 296 304.141C296.825 304.141 298.4 304.527 299.5 305ZM306.5 307C307.761 307.542 307.945 307.859 307 307.859C306.175 307.859 304.6 307.473 303.5 307C302.239 306.458 302.055 306.141 303 306.141C303.825 306.141 305.4 306.527 306.5 307ZM311.729 308.604C311.397 308.936 310.534 308.972 309.813 308.683C309.015 308.364 309.252 308.127 310.417 308.079C311.471 308.036 312.061 308.272 311.729 308.604ZM315.729 309.604C315.397 309.936 314.534 309.972 313.813 309.683C313.015 309.364 313.252 309.127 314.417 309.079C315.471 309.036 316.061 309.272 315.729 309.604ZM319.729 310.604C319.397 310.936 318.534 310.972 317.813 310.683C317.015 310.364 317.252 310.127 318.417 310.079C319.471 310.036 320.061 310.272 319.729 310.604ZM324.25 311.662C323.563 311.94 322.438 311.94 321.75 311.662C321.063 311.385 321.625 311.158 323 311.158C324.375 311.158 324.938 311.385 324.25 311.662ZM328.729 312.604C328.397 312.936 327.534 312.972 326.813 312.683C326.015 312.364 326.252 312.127 327.417 312.079C328.471 312.036 329.061 312.272 328.729 312.604ZM333.25 313.662C332.563 313.94 331.438 313.94 330.75 313.662C330.063 313.385 330.625 313.158 332 313.158C333.375 313.158 333.938 313.385 333.25 313.662ZM337.729 314.604C337.397 314.936 336.534 314.972 335.813 314.683C335.015 314.364 335.252 314.127 336.417 314.079C337.471 314.036 338.061 314.272 337.729 314.604ZM341.729 315.604C341.397 315.936 340.534 315.972 339.813 315.683C339.015 315.364 339.252 315.127 340.417 315.079C341.471 315.036 342.061 315.272 341.729 315.604ZM345.729 316.604C345.397 316.936 344.534 316.972 343.813 316.683C343.015 316.364 343.252 316.127 344.417 316.079C345.471 316.036 346.061 316.272 345.729 316.604ZM349.729 317.604C349.397 317.936 348.534 317.972 347.813 317.683C347.015 317.364 347.252 317.127 348.417 317.079C349.471 317.036 350.061 317.272 349.729 317.604ZM353.729 318.604C353.397 318.936 352.534 318.972 351.813 318.683C351.015 318.364 351.252 318.127 352.417 318.079C353.471 318.036 354.061 318.272 353.729 318.604ZM361 320.5C362.925 321.241 363.825 321.848 363 321.848C362.175 321.848 359.925 321.241 358 320.5C356.075 319.759 355.175 319.152 356 319.152C356.825 319.152 359.075 319.759 361 320.5ZM370.5 323.464C374.362 325.232 372.566 325.258 368 323.5C366.075 322.759 365.175 322.138 366 322.121C366.825 322.104 368.85 322.708 370.5 323.464ZM386.645 330.072C395.39 334.242 404.362 341.66 407.294 347.144C408.875 350.102 408.881 350.204 407.35 348C406.394 346.625 403.27 343.172 400.408 340.328C395.619 335.569 392.706 333.876 376 326.146L373.5 324.989L376 325.589C377.375 325.919 382.165 327.936 386.645 330.072ZM250.985 345.75C250.975 346.914 250.718 347.105 250.218 346.319C249.805 345.669 247.45 344.96 244.984 344.744L240.5 344.349L245.75 344.175C250.155 344.028 250.998 344.282 250.985 345.75ZM450.83 349.5C450.806 351.108 450.644 351.01 450 349C448.905 345.581 448.905 342.952 450 345.5C450.473 346.6 450.846 348.4 450.83 349.5ZM239.729 345.604C239.397 345.936 238.534 345.972 237.813 345.683C237.015 345.364 237.252 345.127 238.417 345.079C239.471 345.036 240.061 345.272 239.729 345.604ZM227.146 351.607C223.129 355.046 219.592 360.572 217.935 366C217.436 367.635 217.142 367.891 217.086 366.739C216.925 363.447 221.163 356.104 225.566 352.046C227.98 349.821 230.271 348 230.658 348C231.044 348 229.463 349.623 227.146 351.607ZM251.718 356.736C251.488 358.256 251.294 357.25 251.286 354.5C251.279 351.75 251.467 350.506 251.704 351.736C251.941 352.966 251.947 355.216 251.718 356.736ZM410.914 355C410.878 355.989 410.567 355.819 410 354.5C408.819 351.751 408.819 350.172 410 352C410.533 352.825 410.945 354.175 410.914 355ZM451.689 356.75C451.438 357.712 451.232 356.925 451.232 355C451.232 353.075 451.438 352.288 451.689 353.25C451.941 354.212 451.941 355.788 451.689 356.75ZM411.683 359.188C411.364 359.985 411.127 359.748 411.079 358.583C411.036 357.529 411.272 356.939 411.604 357.271C411.936 357.603 411.972 358.466 411.683 359.188ZM452.738 373.216C452.536 376.122 452.368 374 452.365 368.5C452.363 363 452.528 360.622 452.734 363.216C452.939 365.811 452.941 370.311 452.738 373.216ZM252.693 363.731C252.439 364.704 252.215 364.15 252.195 362.5C252.175 360.85 252.382 360.054 252.656 360.731C252.93 361.408 252.947 362.758 252.693 363.731ZM412.733 372.224C412.522 374.576 412.346 372.9 412.343 368.5C412.339 364.1 412.512 362.176 412.727 364.224C412.942 366.272 412.945 369.872 412.733 372.224ZM253.683 368.188C253.364 368.985 253.127 368.748 253.079 367.583C253.036 366.529 253.272 365.939 253.604 366.271C253.936 366.603 253.972 367.466 253.683 368.188ZM216.738 383.216C216.536 386.122 216.368 384 216.365 378.5C216.363 373 216.528 370.622 216.734 373.216C216.939 375.811 216.941 380.311 216.738 383.216ZM255.914 374.5C255.945 375.05 255.533 374.825 255 374C254.467 373.175 254.055 371.825 254.086 371C254.144 369.416 255.81 372.606 255.914 374.5ZM268.728 395.073C274.856 401.691 284.08 407.968 292.27 411.092C295.444 412.303 297.865 413.469 297.65 413.683C296.946 414.387 286.619 409.909 280.8 406.376C272.753 401.491 263.817 392.083 259.597 384.054C257.619 380.288 256.013 376.823 256.029 376.354C256.045 375.884 257.724 378.624 259.76 382.442C261.796 386.261 265.832 391.945 268.728 395.073ZM411.662 380.25C411.385 380.938 411.158 380.375 411.158 379C411.158 377.625 411.385 377.063 411.662 377.75C411.94 378.438 411.94 379.563 411.662 380.25ZM451.693 382.731C451.439 383.704 451.215 383.15 451.195 381.5C451.175 379.85 451.382 379.054 451.656 379.731C451.93 380.408 451.947 381.758 451.693 382.731ZM409.537 387.209C407.139 393.214 401.484 400.325 396.082 404.128C392.151 406.894 392.428 406.491 398.034 401.285C404.001 395.745 410 386.526 410 382.896C410 382.22 410.281 381.948 410.625 382.292C410.969 382.636 410.479 384.848 409.537 387.209ZM449.993 391.027C448.452 396.749 447.901 395.644 449.284 389.604C449.899 386.912 450.564 385.192 450.76 385.781C450.957 386.37 450.611 388.73 449.993 391.027ZM217.683 391.188C217.364 391.985 217.127 391.748 217.079 390.583C217.036 389.529 217.272 388.939 217.604 389.271C217.936 389.603 217.972 390.466 217.683 391.188ZM445.614 401.961C439.67 413.794 429.398 425.044 417.75 432.475C412.771 435.652 414.884 433.412 420.542 429.516C428.832 423.806 439.223 412.128 443.628 403.572C445.736 399.477 447.622 396.289 447.821 396.488C448.019 396.686 447.026 399.149 445.614 401.961ZM222.399 402.75C223.308 404.538 223.826 406 223.551 406C222.975 406 220 400.456 220 399.383C220 398.339 220.542 399.1 222.399 402.75ZM389.559 408.532C388.491 409.339 387.141 409.984 386.559 409.965C385.976 409.945 386.625 409.286 388 408.5C391.239 406.648 392.028 406.664 389.559 408.532ZM380.5 412.536C378.85 413.292 376.825 413.896 376 413.879C375.175 413.862 376.075 413.241 378 412.5C382.566 410.742 384.362 410.768 380.5 412.536ZM305.5 415.43C308.25 416.195 309.6 416.827 308.5 416.834C306.371 416.847 297.808 414.269 299.5 414.124C300.05 414.077 302.75 414.665 305.5 415.43ZM370.25 415.662C369.563 415.94 368.438 415.94 367.75 415.662C367.063 415.385 367.625 415.158 369 415.158C370.375 415.158 370.938 415.385 370.25 415.662ZM365.25 416.662C364.563 416.94 363.438 416.94 362.75 416.662C362.063 416.385 362.625 416.158 364 416.158C365.375 416.158 365.938 416.385 365.25 416.662ZM316.269 417.656C315.592 417.93 314.242 417.947 313.269 417.693C312.296 417.439 312.85 417.215 314.5 417.195C316.15 417.175 316.946 417.382 316.269 417.656ZM359.762 417.687C358.806 417.937 357.006 417.946 355.762 417.707C354.518 417.468 355.3 417.263 357.5 417.252C359.7 417.241 360.718 417.437 359.762 417.687ZM344.75 418.745C339.938 418.928 332.063 418.928 327.25 418.745C322.438 418.561 326.375 418.411 336 418.411C345.625 418.411 349.563 418.561 344.75 418.745ZM414 434.486C414 435.092 402.342 441.018 401.279 440.951C400.85 440.925 403.425 439.372 407 437.5C414.235 433.713 414 433.813 414 434.486ZM115.286 448.455C119.905 451.224 119.663 451.911 114.931 449.464C111.954 447.925 105.992 440.664 106.009 438.6C106.015 437.995 107.156 439.397 108.545 441.714C109.934 444.032 112.968 447.066 115.286 448.455ZM399 442C398.175 442.533 397.05 442.969 396.5 442.969C395.95 442.969 396.175 442.533 397 442C397.825 441.467 398.95 441.031 399.5 441.031C400.05 441.031 399.825 441.467 399 442ZM385.729 446.604C385.397 446.936 384.534 446.972 383.813 446.683C383.015 446.364 383.252 446.127 384.417 446.079C385.471 446.036 386.061 446.272 385.729 446.604ZM381.729 447.604C381.397 447.936 380.534 447.972 379.813 447.683C379.015 447.364 379.252 447.127 380.417 447.079C381.471 447.036 382.061 447.272 381.729 447.604ZM377.729 448.604C377.397 448.936 376.534 448.972 375.813 448.683C375.015 448.364 375.252 448.127 376.417 448.079C377.471 448.036 378.061 448.272 377.729 448.604ZM373.269 449.656C372.592 449.93 371.242 449.947 370.269 449.693C369.296 449.439 369.85 449.215 371.5 449.195C373.15 449.175 373.946 449.382 373.269 449.656ZM367.269 450.656C366.592 450.93 365.242 450.947 364.269 450.693C363.296 450.439 363.85 450.215 365.5 450.195C367.15 450.175 367.946 450.382 367.269 450.656ZM123.25 451.662C122.563 451.94 121.438 451.94 120.75 451.662C120.063 451.385 120.625 451.158 122 451.158C123.375 451.158 123.938 451.385 123.25 451.662ZM310.729 451.604C310.397 451.936 309.534 451.972 308.813 451.683C308.015 451.364 308.252 451.127 309.417 451.079C310.471 451.036 311.061 451.272 310.729 451.604ZM360.25 451.706C359.012 451.944 356.988 451.944 355.75 451.706C354.512 451.467 355.525 451.272 358 451.272C360.475 451.272 361.488 451.467 360.25 451.706ZM342.803 452.745C337.47 452.924 328.47 452.925 322.803 452.746C317.136 452.568 321.5 452.421 332.5 452.42C343.5 452.419 348.136 452.565 342.803 452.745Z" fill="#001829"/>
<path fill-rule="evenodd" clip-rule="evenodd" d="M302.5 146.583C284.868 149.306 266.205 156.067 254.327 164.037C248.163 168.172 237.698 178.258 233.858 183.765C224.824 196.718 221.607 207.75 221.686 225.5C221.805 252.15 230.607 269.519 251.179 283.698C269.43 296.277 288.706 303.119 339.5 315.043C389.099 326.686 407.043 337.536 412.012 358.89C413.641 365.887 412.801 377.822 410.153 385.328C402.364 407.402 376.957 418.932 336 418.976C304.864 419.01 284.269 412.171 268.952 396.71C258.842 386.506 251 367.247 251 352.624C251 345.859 250.389 345 245.575 345C234.923 345 225.21 350.883 220.21 360.362C217.662 365.193 217.501 366.278 217.518 378.5C217.538 393.479 218.931 398.267 226.596 409.698C229.018 413.31 231 416.43 231 416.632C231 416.835 211.65 417 188 417H145V282.357V147.714L137.25 148.287C132.988 148.602 127.365 149.607 124.756 150.522C117.757 152.974 110.556 159.898 108.056 166.58C106.019 172.023 106 173.319 106 304.7V437.324L108.527 441.636C110.086 444.297 112.861 447.01 115.777 448.723L120.5 451.5H240C350.405 451.5 360.203 451.365 368.736 449.722C407.01 442.352 432.51 426.155 444.514 401.589C450.548 389.241 452.462 379.206 451.679 364.023C450.682 344.666 445.748 332.07 434.487 320.133C417.343 301.96 392.075 291.167 337 278.493C313.617 273.111 292.835 266.607 283.736 261.824C280.306 260.02 274.796 255.835 271.491 252.522C263.257 244.271 261.5 239.252 261.5 223.979C261.5 212.98 261.649 212.156 264.781 205.794C270.498 194.18 282.61 185.708 300.5 180.807C307.579 178.868 310.974 178.616 330 178.616C354.03 178.616 360.628 179.76 373.842 186.22C382.194 190.304 393.269 201.131 397.655 209.5C401.001 215.885 405.316 228.727 406.475 235.75L407.176 240H411.906C423.643 240 434.304 233.425 437.426 224.263C440.612 214.913 438.898 201.685 432.983 189.967C429.151 182.376 417.786 170.341 408.821 164.381C396.458 156.162 377.363 149.431 358 146.466C345.948 144.621 314.784 144.687 302.5 146.583Z" fill="white"/>
</svg>
