<svg id="visual" viewBox="0 0 1440 100" width="1440" height="100" xmlns="http://www.w3.org/2000/svg" xmlns:xlink="http://www.w3.org/1999/xlink" version="1.1"><rect width="1440" height="100" fill="#001829"></rect><g><g transform="translate(1092 49)"><path d="M0 -41.4L35.8 -20.7L35.8 20.7L0 41.4L-35.8 20.7L-35.8 -20.7Z" stroke="#297EA6" fill="none" stroke-width="2"></path></g><g transform="translate(858 13)"><path d="M0 -30L26 -15L26 15L0 30L-26 15L-26 -15Z" stroke="#297EA6" fill="none" stroke-width="2"></path></g><g transform="translate(1175 96)"><path d="M0 -14L12.1 -7L12.1 7L0 14L-12.1 7L-12.1 -7Z" stroke="#297EA6" fill="none" stroke-width="2"></path></g><g transform="translate(1314 3)"><path d="M0 -7L6.1 -3.5L6.1 3.5L0 7L-6.1 3.5L-6.1 -3.5Z" stroke="#297EA6" fill="none" stroke-width="2"></path></g><g transform="translate(1343 95)"><path d="M0 -13L11.3 -6.5L11.3 6.5L0 13L-11.3 6.5L-11.3 -6.5Z" stroke="#297EA6" fill="none" stroke-width="2"></path></g><g transform="translate(833 95)"><path d="M0 -39L33.8 -19.5L33.8 19.5L0 39L-33.8 19.5L-33.8 -19.5Z" stroke="#297EA6" fill="none" stroke-width="2"></path></g><g transform="translate(512 73)"><path d="M0 -6L5.2 -3L5.2 3L0 6L-5.2 3L-5.2 -3Z" stroke="#297EA6" fill="none" stroke-width="2"></path></g><g transform="translate(1001 88)"><path d="M0 -30L26 -15L26 15L0 30L-26 15L-26 -15Z" stroke="#297EA6" fill="none" stroke-width="2"></path></g><g transform="translate(96 19)"><path d="M0 -21L18.2 -10.5L18.2 10.5L0 21L-18.2 10.5L-18.2 -10.5Z" stroke="#297EA6" fill="none" stroke-width="2"></path></g><g transform="translate(304 48)"><path d="M0 -23L19.9 -11.5L19.9 11.5L0 23L-19.9 11.5L-19.9 -11.5Z" stroke="#297EA6" fill="none" stroke-width="2"></path></g><g transform="translate(646 84)"><path d="M0 -25L21.7 -12.5L21.7 12.5L0 25L-21.7 12.5L-21.7 -12.5Z" stroke="#297EA6" fill="none" stroke-width="2"></path></g><g transform="translate(1430 4)"><path d="M0 -7L6.1 -3.5L6.1 3.5L0 7L-6.1 3.5L-6.1 -3.5Z" stroke="#297EA6" fill="none" stroke-width="2"></path></g><g transform="translate(181 43)"><path d="M0 -25L21.7 -12.5L21.7 12.5L0 25L-21.7 12.5L-21.7 -12.5Z" stroke="#297EA6" fill="none" stroke-width="2"></path></g><g transform="translate(403 42)"><path d="M0 -29L25.1 -14.5L25.1 14.5L0 29L-25.1 14.5L-25.1 -14.5Z" stroke="#297EA6" fill="none" stroke-width="2"></path></g><g transform="translate(21 88)"><path d="M0 -16L13.9 -8L13.9 8L0 16L-13.9 8L-13.9 -8Z" stroke="#297EA6" fill="none" stroke-width="2"></path></g><g transform="translate(957 5)"><path d="M0 -11L9.5 -5.5L9.5 5.5L0 11L-9.5 5.5L-9.5 -5.5Z" stroke="#297EA6" fill="none" stroke-width="2"></path></g><g transform="translate(1197 5)"><path d="M0 -28L24.2 -14L24.2 14L0 28L-24.2 14L-24.2 -14Z" stroke="#297EA6" fill="none" stroke-width="2"></path></g><g transform="translate(745 59)"><path d="M0 -15L13 -7.5L13 7.5L0 15L-13 7.5L-13 -7.5Z" stroke="#297EA6" fill="none" stroke-width="2"></path></g><g transform="translate(917 94)"><path d="M0 -39L33.8 -19.5L33.8 19.5L0 39L-33.8 19.5L-33.8 -19.5Z" stroke="#297EA6" fill="none" stroke-width="2"></path></g><g transform="translate(3 8)"><path d="M0 -14L12.1 -7L12.1 7L0 14L-12.1 7L-12.1 -7Z" stroke="#297EA6" fill="none" stroke-width="2"></path></g><g transform="translate(578 9)"><path d="M0 -19L16.5 -9.5L16.5 9.5L0 19L-16.5 9.5L-16.5 -9.5Z" stroke="#297EA6" fill="none" stroke-width="2"></path></g><g transform="translate(1259 92)"><path d="M0 -23L19.9 -11.5L19.9 11.5L0 23L-19.9 11.5L-19.9 -11.5Z" stroke="#297EA6" fill="none" stroke-width="2"></path></g></g></svg>