<svg width="181" height="96" viewBox="0 0 181 96" fill="none" xmlns="http://www.w3.org/2000/svg">
<path fill-rule="evenodd" clip-rule="evenodd" d="M51.8262 95.8797C54.5875 95.6504 57.6669 95.123 60.1031 94.4626C61.2689 94.1467 63.0404 93.7071 64.0396 93.4859C65.0389 93.2649 66.7649 92.8411 67.8753 92.5446C68.9856 92.2479 70.3482 91.8854 70.9034 91.7388C71.4585 91.5923 72.6849 91.2312 73.6287 90.9363C74.5724 90.6412 75.7988 90.2751 76.354 90.1225C76.9091 89.9697 78.0447 89.6535 78.8774 89.4193C82.4001 88.4291 85.9747 87.5665 87.8608 87.2514C92.0477 86.552 96.8204 86.9331 101.286 88.3231C108.647 90.615 111.337 90.7991 116.045 89.3335C122.612 87.2893 125.644 87.1935 128.657 88.9355C129.572 89.4641 129.903 89.543 129.599 89.1602C129.489 89.0213 129.295 88.5855 129.168 88.1913C128.286 85.45 125.98 82.4089 123.856 81.1864C121.761 79.9806 120.45 79.7027 116.325 79.5887C113.411 79.5081 112.188 79.3925 111.233 79.1073C109.493 78.5867 108.137 77.6964 107.715 76.7977C107.611 76.5756 107.395 76.1669 107.235 75.8894C106.708 74.9769 106.955 71.2472 107.541 71.2472C107.63 71.2472 107.753 71.0427 107.816 70.793C107.97 70.1857 109.657 68.4168 110.723 67.7457C111.194 67.4488 112.141 67.0752 112.826 66.9153C115.05 66.3966 116.207 66.7744 122.609 70.109C123.734 70.6949 125.415 71.4403 126.344 71.7657C127.979 72.3381 128.151 72.3569 131.668 72.3439C135.037 72.3316 135.412 72.2925 136.815 71.8066C139.423 70.9044 141.14 69.891 143.039 68.1346C144.27 66.9959 146.304 64.2364 146.304 63.7051C146.304 63.6532 145.963 63.7768 145.547 63.9796C143.22 65.1127 140.455 65.7976 138.205 65.7976C134.406 65.7976 130.852 64.0333 129.68 61.5658C129.127 60.4029 129.09 57.9487 129.611 57.0177C129.797 56.6846 129.95 56.3213 129.952 56.2103C129.957 55.8781 131.828 53.9845 132.686 53.4429C133.125 53.1658 134.211 52.6822 135.1 52.3684C136.61 51.8345 136.91 51.7988 139.743 51.8157C141.912 51.8286 143.086 51.9271 143.881 52.1633C144.492 52.3447 145.355 52.5833 145.799 52.6937C146.243 52.8039 146.879 53.0169 147.212 53.1666C147.545 53.3164 148.158 53.5586 148.575 53.7047C148.991 53.8508 149.332 54.0428 149.332 54.1316C149.332 54.2202 149.469 54.2929 149.637 54.2929C149.804 54.2929 150.327 54.4697 150.797 54.6858C153.185 55.782 157.467 56.7111 160.143 56.7135C161.926 56.7153 165.477 56.0735 167.276 55.425C168.714 54.9062 171.424 53.6308 172.446 52.992C174.696 51.5854 177.086 49.8884 178.105 48.9727C179.214 47.9772 179.721 47.5342 180.401 46.968C180.772 46.6582 181.04 46.368 180.995 46.3231C180.95 46.2783 180.144 46.4192 179.203 46.6364C173.263 48.0077 171.164 48.2856 167.501 48.1855C164.658 48.1078 164.007 48.0285 163.059 47.6448C161.741 47.1109 160.598 46.4446 160.374 46.0791C160.285 45.9342 160.104 45.8153 159.97 45.8147C159.837 45.8143 158.956 45.0431 158.012 44.1011C157.069 43.1591 155.933 42.1379 155.489 41.8319C155.045 41.5259 154.624 41.1973 154.555 41.1016C154.155 40.5514 150.23 38.5916 148.09 37.8732C145.267 36.9258 141.658 36.6768 137.825 37.165C136.881 37.2851 136.012 37.4613 135.894 37.5564C135.776 37.6514 134.822 37.8785 133.774 38.0608C129.562 38.7934 126.617 37.8741 125.328 35.4242C124.786 34.3944 124.794 33.6698 125.357 32.5415C126.232 30.7894 128.242 29.4353 131.12 28.659C132.895 28.1802 135.065 28.18 140.312 28.6584C145.848 29.1632 150.533 28.0059 155.236 24.9716C155.764 24.6315 156.172 24.33 156.143 24.3013C156.114 24.2729 155.592 24.3754 154.983 24.5296C154.373 24.6836 153.351 24.941 152.712 25.1018C149.756 25.8458 146.179 25.6859 143.684 24.6983C142.96 24.4115 141.231 23.5556 139.844 22.796C135.79 20.5781 132.751 19.7305 128.841 19.7271C125.969 19.7247 121.259 20.6558 119.51 21.5713C119.313 21.6744 118.516 22.0628 117.738 22.4339C116.961 22.8053 116.28 23.161 116.224 23.2243C116.169 23.2875 115.509 23.5828 114.758 23.8803C112.887 24.6217 110.787 24.6392 109.378 23.9251C107.461 22.9543 106.577 21.1067 106.838 18.618C107.139 15.7427 109.357 13.4086 112.792 12.3524C114.475 11.8351 116.671 11.5035 118.413 11.5035C120.127 11.5035 123.73 12.0099 124.804 12.4021C125.248 12.5641 125.722 12.7008 125.858 12.7056C125.993 12.7105 126.584 12.9284 127.17 13.1896C128.961 13.9881 129.203 14.0303 128.746 13.4629C128.637 13.3289 128.076 12.6287 127.498 11.9072C124.848 8.59945 122.055 6.64103 118.396 5.52508C115.626 4.67999 109.855 4.64548 105.828 5.44959C96.9236 7.22757 91.264 7.61731 85.3663 6.85881C81.3296 6.33969 80.4825 6.14229 71.1052 3.53436C65.2398 1.90331 61.2027 1.00111 58.4881 0.714905C57.7664 0.638611 56.4037 0.446657 55.46 0.288216C54.3194 0.0966726 52.1872 0 49.1009 0C43.0112 -0.000403673 38.964 0.548791 33.9603 2.05429C32.6386 2.45191 32.1115 2.64385 29.5191 3.67181C27.7121 4.38833 24.0186 6.32092 22.1817 7.51115C21.887 7.70188 21.3914 8.00202 21.0801 8.17782C20.7688 8.35362 20.36 8.63134 20.1717 8.79523C19.9833 8.95913 19.1023 9.65708 18.2141 10.3465C16.3171 11.8189 12.3924 15.689 10.9002 17.5586C10.3242 18.2801 9.73012 19.0122 9.58012 19.1854C9.18183 19.6452 7.15259 22.7583 6.5621 23.8155C5.26223 26.1431 3.17444 30.4848 3.17444 30.8604C3.17444 30.9747 3.04343 31.3662 2.88354 31.7308C2.10512 33.5041 0.903966 38.3367 0.537766 41.1678C0.416237 42.1082 0.281574 42.9347 0.238373 43.0041C0.195374 43.0738 0.104126 44.3934 0.0356903 45.9366C-0.131866 49.7144 0.297921 54.417 1.16881 58.3296C1.67107 60.5873 3.01374 64.8457 3.70032 66.3587C3.96619 66.9446 4.18381 67.4922 4.18381 67.5751C4.18381 67.7201 5.25335 69.848 6.02956 71.2472C6.12181 71.4137 6.34589 71.8224 6.52737 72.1554C6.70886 72.4885 7.2095 73.2821 7.6403 73.9193C8.0709 74.5563 8.42317 75.139 8.42317 75.2143C8.42317 75.2893 8.56005 75.4948 8.7274 75.6706C8.89476 75.8464 9.39621 76.4899 9.84175 77.1002C11.2187 78.9872 14.4653 82.4527 16.3651 84.0638C16.8888 84.5078 17.5984 85.1164 17.9422 85.4161C18.2858 85.7158 18.9419 86.2152 19.3999 86.5256C19.858 86.8362 20.2783 87.1392 20.3338 87.1991C20.3893 87.2591 20.8889 87.5975 21.4441 87.9514C21.9992 88.305 22.5443 88.6683 22.6553 88.7587C23.3423 89.3174 27.2577 91.3293 29.4181 92.2335C30.2509 92.5823 31.1139 92.9513 31.336 93.0538C31.8953 93.3121 34.6469 94.1431 36.5847 94.6388C40.8414 95.7279 47.3129 96.2549 51.8262 95.8797ZM41.3287 89.6187C40.8291 89.4952 39.7206 89.27 38.8653 89.1184C38.0099 88.9666 37.2139 88.7829 37.0962 88.7103C36.9787 88.6376 36.3158 88.4095 35.6232 88.2037C34.1103 87.7538 32.245 87.1022 31.7185 86.8398C31.5082 86.7349 30.4275 86.2041 29.3172 85.6601C27.4329 84.7369 24.8025 83.2284 24.5732 82.9394C24.5176 82.8695 24.0931 82.5748 23.6298 82.2846C20.962 80.6142 16.3429 76.0575 13.9747 72.7597C13.7527 72.4505 13.3665 71.9207 13.1168 71.5822C12.867 71.2437 12.6626 70.8558 12.6626 70.7202C12.6626 70.5845 12.5812 70.4432 12.4821 70.4061C12.2245 70.3102 11.6229 69.2526 10.3773 66.7058C8.10058 62.0507 7.43015 59.917 6.32509 53.8123C5.95445 51.7643 5.87855 44.9083 6.20418 42.8891C6.71088 39.7457 7.7253 35.4205 8.19203 34.4122C8.29479 34.1899 8.65514 33.2817 8.99287 32.3936C9.54621 30.9387 11.0712 27.7681 11.7081 26.749C14.5196 22.2495 16.4766 19.8579 19.9716 16.6503C20.8185 15.8732 21.7233 15.0742 21.9823 14.8744C23.4408 13.7503 24.8972 12.7246 25.0409 12.7199C25.1315 12.7169 25.4949 12.4989 25.8484 12.2355C27.6202 10.9145 31.1294 9.2423 34.3641 8.17761C37.4968 7.14643 38.5504 6.85942 39.6615 6.73468C40.301 6.66303 40.9149 6.53446 41.0259 6.44908C41.3483 6.20082 45.426 5.85205 48.0043 5.85205C50.5257 5.85205 54.1575 6.15723 55.1572 6.45332C55.4903 6.55182 56.4441 6.77283 57.2768 6.94439C62.8861 8.0991 68.5624 10.7674 73.7316 14.6794C75.9218 16.3367 78.5877 18.8988 80.5282 21.2102C82.0824 23.0619 84.455 26.7635 85.6263 29.1642C86.1679 30.2743 86.6968 31.3547 86.8018 31.565C87.3461 32.657 88.5105 36.3514 88.9714 38.4487C89.1666 39.3368 89.4304 40.4721 89.5578 40.9716C89.897 42.3015 90.0653 50.1556 89.8108 52.7791C89.6923 54.0002 89.445 55.6351 89.2608 56.4122C88.8066 58.3308 87.9678 61.3676 87.7557 61.8617C87.6604 62.0838 87.2429 63.1283 86.8283 64.1829C86.4136 65.2375 86.0066 66.1467 85.9239 66.2033C85.8409 66.26 85.7105 66.5559 85.634 66.861C85.5573 67.1664 85.4163 67.4643 85.3209 67.5235C85.2252 67.5824 84.9633 68.0131 84.7389 68.4802C84.5144 68.9474 84.1712 69.5689 83.9762 69.8613C83.781 70.1536 83.4004 70.7668 83.1301 71.2237C82.8598 71.6807 82.5647 72.0545 82.474 72.0545C82.3834 72.0545 82.3093 72.1502 82.3093 72.267C82.3093 72.61 79.4223 76.1223 77.8517 77.6902C76.0978 79.4411 72.587 82.3482 72.2263 82.3482C72.1094 82.3482 72.0137 82.4222 72.0137 82.5129C72.0137 82.6035 71.6398 82.8986 71.1828 83.1688C70.7257 83.4391 70.1124 83.8179 69.8201 84.0109C69.5276 84.2039 68.9704 84.5218 68.5818 84.7173C68.1932 84.9129 67.7551 85.1864 67.6086 85.3253C67.4618 85.4641 67.2438 85.5776 67.1239 85.5776C66.9311 85.5776 65.6032 86.1645 64.1406 86.8962C63.178 87.3775 58.1802 88.9519 57.1759 89.0899C56.6207 89.1662 55.9394 89.315 55.6618 89.4205C54.5556 89.8416 52.0992 89.9871 47.284 89.9171C44.5083 89.8767 41.8284 89.7425 41.3287 89.6187ZM52.9365 87.4044C56.4522 86.8544 58.0381 86.4727 61.1125 85.4363C62.4563 84.9834 66.6145 83.1291 66.9828 82.8187C67.158 82.6709 67.3631 82.55 67.4384 82.55C67.7253 82.55 71.7727 79.8129 73.124 78.7052C75.021 77.1501 78.464 73.5594 79.501 72.0545C79.7687 71.666 80.0404 71.3027 80.105 71.2472C80.2635 71.1107 81.9673 68.4703 82.384 67.715C82.5679 67.382 82.8053 66.9733 82.9119 66.8067C83.2109 66.3395 84.6906 63.0905 85.0457 62.1215C86.1651 59.0667 86.952 55.9939 87.3608 53.0818C87.5887 51.4573 87.5958 44.7656 87.3715 42.99C87.1517 41.2496 86.3589 37.4982 86.1564 37.2405C86.068 37.1279 85.9301 36.6725 85.8502 36.2285C85.77 35.7844 85.531 35.0401 85.319 34.5744C85.1071 34.1088 84.9337 33.6341 84.9337 33.5196C84.9337 33.1646 82.9347 29.0748 82.1997 27.9259C81.8157 27.3261 81.5018 26.7956 81.5018 26.7472C81.5018 26.5902 79.8165 24.2188 79.1802 23.4803C79.0692 23.3515 78.6624 22.8519 78.2764 22.3702C76.2759 19.8738 73.0709 17.0499 69.9013 14.991C69.009 14.4115 68.1882 13.8646 68.0771 13.7758C67.9661 13.6867 66.876 13.1285 65.6546 12.5353C64.4333 11.9419 63.2618 11.3672 63.0515 11.258C62.4745 10.9591 60.5381 10.2973 59.3624 9.99717C58.7885 9.85084 58.2192 9.66939 58.0975 9.59411C57.6765 9.33414 53.5329 8.65959 50.9695 8.43374C45.8483 7.98284 39.5676 8.82672 34.6861 10.6219C31.9307 11.6351 28.4687 13.3691 26.2881 14.8283C24.2094 16.2194 21.7469 18.1572 21.7469 18.4021C21.7469 18.4933 21.6601 18.5678 21.5539 18.5678C21.3534 18.5678 19.7395 20.1364 18.525 21.5112C16.67 23.6113 15.3963 25.3325 14.2812 27.2467C13.6707 28.2945 13.421 28.7058 13.0558 29.2651C12.8745 29.5426 12.6141 30.1102 12.4768 30.5266C12.3397 30.943 12.1437 31.2835 12.0412 31.2835C11.9388 31.2835 11.855 31.4207 11.855 31.5885C11.855 31.7562 11.6776 32.2783 11.4606 32.749C10.3517 35.1541 9.60111 37.8171 8.80128 42.1827C8.42539 44.2349 8.4258 51.8399 8.8019 53.8892C9.43134 57.3184 10.0485 59.7826 10.5538 60.883C10.7143 61.2328 10.8457 61.6246 10.8457 61.7534C10.8457 61.8821 11.0603 62.4588 11.3227 63.0348C11.5851 63.6107 12.0042 64.5361 12.254 65.0911C13.2494 67.3033 16.0619 71.7891 17.1113 72.8382C17.4403 73.1672 17.7094 73.4954 17.7094 73.5679C17.7094 73.7382 22.1214 78.086 22.8302 78.6142C23.1281 78.8362 23.4832 79.1099 23.6193 79.2225C24.643 80.0702 25.5704 80.7335 25.7317 80.7335C25.8373 80.7335 26.086 80.9129 26.2844 81.1319C26.4829 81.3511 26.8242 81.5872 27.0431 81.6569C27.2619 81.7263 27.7301 81.9792 28.0831 82.2188C28.4362 82.4584 29.4488 83.008 30.3334 83.4401C31.2178 83.8722 32.1895 84.3524 32.4927 84.507C33.8457 85.1973 37.8298 86.3898 40.8241 87.0005C42.652 87.3733 43.8302 87.4631 47.4859 87.5079C49.9286 87.5378 52.3814 87.4914 52.9365 87.4044ZM42.866 83.7572C42.7639 83.6591 42.9425 83.2554 43.2831 82.8154C44.2259 81.5969 44.8642 80.3567 45.4611 78.5833C45.9947 76.9979 46.0114 76.8205 45.9194 73.7392C45.8164 70.2911 45.624 69.5459 44.2135 67.1345C43.9039 66.6049 43.557 66.0085 43.443 65.8091C42.971 64.984 39.6366 61.9627 39.198 61.9627C39.1273 61.9627 38.8283 61.7935 38.5336 61.587C38.2388 61.3804 37.6344 61.0962 37.1903 60.9551C36.7462 60.8142 36.2849 60.6219 36.1652 60.5276C35.8513 60.2804 33.3793 59.953 31.7902 59.9483C30.612 59.9449 30.4275 59.9933 30.4275 60.307C30.4275 60.5064 30.5662 60.8469 30.7358 61.0639C30.9053 61.2807 31.3369 61.9162 31.6947 62.4763C32.5193 63.7673 32.6481 63.9187 34.4026 65.6648C35.8081 67.0637 36.4632 67.6383 37.0835 68.0166C37.6825 68.3819 37.1112 68.4337 36.4549 68.0735C35.2993 67.4395 33.9636 66.5528 33.8931 66.373C33.856 66.2785 33.7015 66.2012 33.5497 66.2012C33.3981 66.2012 33.2013 66.0836 33.1124 65.9399C33.0236 65.7959 32.5117 65.3192 31.9749 64.8802C31.2447 64.283 28.947 61.6276 28.0761 60.3744C27.9858 60.2446 26.1898 61.0469 26.189 61.2175C26.1886 61.3071 26.405 61.7612 26.6698 62.2267C26.9347 62.6919 27.3917 63.4954 27.6855 64.0121C27.9794 64.5288 28.353 65.0621 28.5162 65.1973C28.6791 65.3327 28.8125 65.5085 28.8125 65.5881C28.8125 65.9417 32.3266 69.6325 32.6633 69.6325C32.7729 69.6325 32.912 69.7612 32.9724 69.9185C33.0985 70.2469 34.3186 71.1113 36.2039 72.2079C36.6354 72.459 37.1247 72.7516 37.2912 72.8586C37.4578 72.9656 37.912 73.2409 38.3006 73.4706L39.0072 73.888L38.4016 73.7511C38.0685 73.6759 37.5688 73.4964 37.2912 73.3525C37.0137 73.2086 36.2415 72.8524 35.5753 72.5609C34.317 72.0107 32.3952 70.8647 32.2781 70.5948C32.2409 70.5096 32.1174 70.4398 32.0031 70.4398C31.2554 70.4398 25.3806 64.5662 25.3806 63.8186C25.3806 63.7043 25.3092 63.5808 25.222 63.5436C25.1348 63.5067 24.8594 63.186 24.6101 62.831L24.1569 62.1855L23.4745 62.588C22.5457 63.1359 22.4928 63.3997 23.0851 64.5256C24.7734 67.7338 29.0114 72.5571 31.7397 74.3756C32.4059 74.8197 32.9964 75.2284 33.0519 75.2839C33.1997 75.4316 33.9686 75.8622 35.6763 76.7531C38.0555 77.9946 38.1323 78.2858 35.8517 77.4193C34.0025 76.7167 31.5215 75.3574 29.2893 73.824C26.8729 72.1639 23.1742 68.3772 21.6213 65.9736C20.9507 64.9357 20.8215 64.9507 19.9642 66.1669C19.4643 66.8762 19.4681 66.9107 20.1781 68.042C22.9194 72.4101 26.6173 76.1588 30.9322 78.9432C31.7094 79.4448 33.2083 80.2894 34.2631 80.8203C35.8529 81.6206 36.0429 81.7622 35.3734 81.649C34.5135 81.5033 33.1046 80.917 31.1341 79.8846C29.5841 79.0726 27.3184 77.6652 27.2312 77.4603C27.1941 77.3733 27.0758 77.3023 26.968 77.3023C26.6726 77.3023 24.1781 75.2641 22.7163 73.8284C21.3579 72.4943 18.7188 69.3834 18.7188 69.1162C18.7188 69.0302 18.5775 68.816 18.4049 68.6402C16.5912 66.7926 13.4763 59.6541 12.7639 55.712C12.4831 54.1576 12.5267 53.7295 12.9328 54.0608C13.2579 54.3258 17.1044 55.1002 18.0958 55.1002C20.0285 55.1002 23.9746 53.9209 25.6812 52.8332C28.6934 50.9131 30.7208 48.1984 31.8441 44.5807C32.2319 43.3315 32.3037 42.6673 32.2888 40.467C32.2736 38.1996 32.2022 37.6516 31.7633 36.4337C31.4839 35.6585 31.1734 34.9969 31.0731 34.9636C30.8123 34.8766 29.3919 36.5104 28.3906 38.049C26.9843 40.2099 26.2657 41.5723 26.0755 42.438C26.0054 42.7565 25.8127 43.2609 25.6469 43.5586C25.3578 44.0781 25.3504 44.0551 25.4634 42.99C25.6213 41.4996 26.8636 37.8732 27.6067 36.7331C27.7153 36.5666 27.8902 36.2321 27.9953 35.9899C28.1005 35.7475 28.6028 34.9539 29.1115 34.2263C30.0036 32.95 30.026 32.8826 29.7407 32.3308C29.3374 31.5511 28.8971 31.2144 28.5479 31.4189C28.3026 31.5624 27.5292 32.4071 26.3838 33.782C26.2206 33.9778 25.9441 34.2975 25.7691 34.4923C25.594 34.6871 25.3881 34.9757 25.3114 35.1337C25.2349 35.2918 24.9085 35.8299 24.5861 36.3294C23.0238 38.7496 21.353 43.097 21.0373 45.5634C20.9626 46.1461 20.8193 46.6231 20.7186 46.6231C20.4896 46.6231 20.5013 45.2005 20.7404 43.9992C20.8399 43.4996 21.0478 42.4551 21.2027 41.6781C21.4675 40.3492 22.1293 38.1395 22.5326 37.2377C23.1437 35.8714 23.9043 34.3417 24.1886 33.9074C24.3701 33.6298 24.8602 32.8707 25.2777 32.2206C25.695 31.5705 26.3133 30.7234 26.6514 30.3383L27.2664 29.6379L26.6769 29.1626C25.6605 28.3431 25.486 28.3899 24.1468 29.8399C23.4649 30.5783 22.813 31.3868 22.6983 31.6367C22.5835 31.8866 22.4111 32.0908 22.3152 32.0908C22.2191 32.0908 22.0497 32.2951 21.9387 32.545C21.7665 32.9321 21.1496 33.8791 20.5896 34.6158C20.4303 34.8255 19.6111 36.4923 19.0529 37.7423C17.922 40.2755 17.0166 43.499 16.7994 45.7653C16.7222 46.5702 16.5775 47.2286 16.4778 47.2286C16.1982 47.2286 16.2628 44.7565 16.5848 43.1329C16.7435 42.3328 16.9324 41.2694 17.0047 40.7698C17.3303 38.522 19.6841 32.6881 20.8324 31.2835C20.9685 31.117 21.1292 30.84 21.1895 30.6683C21.2499 30.4963 21.7633 29.7503 22.3305 29.0104C22.8978 28.2705 23.3619 27.5745 23.3619 27.4637C23.3619 27.1852 21.7929 26.7878 21.2406 26.9264C20.9921 26.9888 20.482 27.453 20.1071 27.9582C19.732 28.4634 19.0971 29.3047 18.696 29.8278C18.2949 30.351 17.8154 31.0514 17.6305 31.3844C17.4456 31.7174 17.1026 32.3078 16.868 32.6963C16.163 33.8642 15.2815 35.5784 14.9996 36.3294C13.555 40.1788 12.9359 42.3885 12.5858 44.943C12.4615 45.8508 12.2917 46.6606 12.2083 46.7428C12.0028 46.9456 12.0436 44.3419 12.2655 43.0909C12.364 42.5359 12.5362 41.5249 12.6482 40.8445C12.8886 39.3856 13.7573 36.2953 14.1812 35.3907C14.3454 35.0409 14.4794 34.6566 14.4794 34.5367C14.4794 33.7215 17.3915 28.5623 19.1021 26.3467C19.6131 25.6851 20.1672 24.9597 20.3338 24.7347C20.8108 24.0898 24.1672 20.7752 25.2932 19.8371C26.5655 18.7769 28.7667 17.2932 30.2256 16.5125L31.336 15.9185L31.4498 17.8991C31.5124 18.9884 31.7258 20.4247 31.924 21.0907C32.2626 22.2283 33.1994 24.3996 33.448 24.6229C33.5097 24.6784 33.8204 25.1246 34.1384 25.6145C35.5521 27.7937 38.0218 29.6151 41.2278 30.8431C42.5339 31.3434 42.8703 31.3844 45.6691 31.3844C48.9275 31.3844 49.8808 31.1737 52.3309 29.9122C53.37 29.3773 55.2591 28.0521 55.2569 27.8597C55.2551 27.7047 54.0596 27.0451 53.7782 27.0437C53.6483 27.0429 53.2741 26.9026 52.9464 26.7319C51.7834 26.1255 48.316 25.4302 46.4554 25.4302C44.7949 25.4302 44.6968 25.4074 45.0095 25.0948C45.2928 24.8116 45.8255 24.7591 48.4341 24.7575C50.2348 24.7563 51.9023 24.8578 52.4319 25.0011C52.9315 25.1361 53.9033 25.3731 54.5915 25.5275C55.2795 25.6819 56.0353 25.9114 56.2707 26.0375C56.6322 26.2309 56.7675 26.1901 57.1394 25.776C58.1972 24.5976 58.1851 24.4971 56.9177 23.911C56.2826 23.6171 55.5811 23.2788 55.359 23.1589C54.6624 22.7831 52.6107 22.1998 50.514 21.7816C47.7064 21.2217 44.8605 21.1047 42.6409 21.4581C41.6417 21.6171 40.7441 21.674 40.6464 21.5844C40.5487 21.495 40.8212 21.363 41.252 21.2913C41.6828 21.2197 42.2624 21.0794 42.54 20.9795C43.591 20.6015 45.7657 20.3875 48.4953 20.3938C51.9211 20.4017 54.3315 20.8144 57.4428 21.9261C58.2894 22.2287 58.996 22.3786 59.0967 22.2771C59.1934 22.1796 59.3551 21.7307 59.4561 21.2794L59.6396 20.4588L58.5087 19.9411C55.4115 18.523 53.6837 17.9847 50.615 17.4813C47.0523 16.8972 45.1397 16.8675 41.9638 17.3477C40.3702 17.5886 39.0247 17.7443 38.9741 17.6936C38.7653 17.4849 40.8319 16.923 43.9531 16.3397C45.1308 16.1195 51.456 16.1195 52.6337 16.3397C55.0479 16.791 56.1072 17.0461 57.793 17.5824C58.7988 17.9023 59.7298 18.1641 59.8623 18.1641C60.0187 18.1641 60.1031 17.7873 60.1031 17.0897C60.1031 16.0234 60.0966 16.0121 59.2229 15.5759C58.739 15.3343 58.2638 15.1365 58.1671 15.1365C58.0704 15.1365 57.5352 14.9589 56.9779 14.7418C55.3639 14.113 53.2605 13.5598 51.6243 13.3337C50.7916 13.2187 49.6561 13.055 49.1009 12.97C46.7923 12.6164 41.6675 12.9206 37.8981 13.6347C37.6102 13.6894 37.7756 13.5529 38.2821 13.3182C38.7714 13.0913 39.7826 12.8192 40.5291 12.7135C41.2756 12.6075 42.1469 12.4134 42.4655 12.2818C43.2758 11.9469 51.3876 11.799 52.8356 12.0926C53.4463 12.2164 54.6712 12.4541 55.5579 12.6208C58.1235 13.1032 60.9671 14.0943 63.8793 15.521C65.435 16.2832 68.3654 17.9818 68.9422 18.4555C69.0847 18.5728 69.3118 18.7607 69.4468 18.8733C69.5817 18.986 70.1009 19.3909 70.6006 19.7729C71.1002 20.155 71.8914 20.83 72.3589 21.273C73.3228 22.1863 73.2611 22.4779 72.0569 22.7016C70.6642 22.9601 68.0743 24.5464 66.5063 26.1011C65.2804 27.3168 63.8176 29.3668 63.4976 30.3179C63.3749 30.6824 63.1946 31.0837 63.0969 31.2092C62.8579 31.517 62.1218 35.428 62.1218 36.391C62.1218 36.8138 62.2048 37.5406 62.3059 38.0061C62.4073 38.4715 62.591 39.3442 62.7139 39.9453C62.956 41.1283 64.3289 44.0444 64.9612 44.7185C65.176 44.9478 65.3518 45.1991 65.3518 45.277C65.3518 45.7834 69.2567 48.8413 69.5407 48.5573C69.6241 48.4741 69.6865 46.9375 69.6798 45.143C69.6695 42.4788 69.59 41.6022 69.2458 40.3661C68.5885 38.0057 68.5689 37.8839 68.8903 38.1506C69.0423 38.2767 69.274 38.7133 69.4053 39.1208C69.5365 39.5281 69.7168 39.9544 69.806 40.0678C69.9913 40.3038 70.736 42.8489 71.0154 44.201C71.1186 44.7006 71.2718 46.1538 71.356 47.4304L71.509 49.7515L72.3831 50.0281C73.0497 50.239 73.3134 50.2487 73.4934 50.0688C73.8245 49.7384 73.9382 42.6969 73.6331 41.4244C73.5067 40.8978 73.3111 40.0129 73.1983 39.4579C72.914 38.0591 72.0553 35.6827 71.2716 34.1253C70.9098 33.4062 70.6436 32.788 70.6799 32.7516C70.907 32.5244 73.6287 37.1485 73.6287 37.7616C73.6287 37.8741 73.8134 38.3718 74.0393 38.8673C74.265 39.363 74.5331 40.1528 74.635 40.6223C74.7368 41.0919 74.9631 41.9758 75.1377 42.5863C75.3303 43.2599 75.513 45.0461 75.6018 47.1277L75.7484 50.5589H76.7543H77.7603L77.9034 49.7515C78.1202 48.5296 78.0802 42.0054 77.8499 40.9716C77.7384 40.4721 77.5549 39.6092 77.4419 39.0542C76.9297 36.5365 75.2366 32.1447 74.201 30.6469C73.9973 30.3522 73.8306 29.9986 73.8306 29.8609C73.8306 29.2205 76.393 33.2419 77.0521 34.9165C77.2049 35.3051 77.4029 35.7198 77.4922 35.8383C77.7495 36.1802 78.643 38.9333 78.8942 40.1576C79.0199 40.7718 79.1956 41.3652 79.284 41.4762C79.5204 41.7725 79.8868 45.781 79.8868 48.071C79.8868 49.9699 79.9054 50.0543 80.3237 50.0543C80.5639 50.0543 81.1089 49.9005 81.5349 49.7128L82.3093 49.3711L82.2972 45.5247C82.2907 43.409 82.2102 41.2694 82.1185 40.7698C81.5922 37.9037 81.2297 36.442 80.5703 34.529C79.8424 32.4166 79.5129 31.6654 78.1515 29.0128C77.4395 27.6256 77.457 27.1359 78.1777 28.2806C78.396 28.6273 78.7109 29.1188 78.8774 29.3731C79.6528 30.5563 80.488 32.1039 80.6069 32.5777C80.6792 32.8649 80.8009 33.1 80.8776 33.1C80.9541 33.1 81.1326 33.4405 81.2739 33.8569C81.4152 34.2731 81.6546 34.8863 81.8058 35.2193C82.1117 35.8928 82.9228 38.5744 83.4121 40.5296C84.1126 43.3289 84.2959 51.0312 83.7275 53.7816C83.1731 56.4634 82.6941 58.4138 82.5415 58.6093C82.445 58.7331 82.3087 59.1365 82.2386 59.5063C82.1684 59.8759 81.9819 60.4662 81.824 60.8182C81.6661 61.1701 81.2882 62.0287 80.9842 62.7262C80.4254 64.0079 80.1535 64.1728 79.7859 63.453C79.5357 62.9636 79.236 62.611 78.0211 61.3771C77.1665 60.5094 76.6711 60.1314 74.8399 58.9501C72.671 57.5507 68.6616 56.8774 65.6641 57.4088C61.6046 58.1284 58.4148 60.1379 56.1784 63.3844C55.2327 64.7573 54.2828 66.8253 54.1145 67.8783C53.9873 68.6725 53.9905 68.6772 54.5719 68.5682C57.5211 68.0151 59.7351 67.123 62.3835 65.4199C63.7354 64.5506 64.341 64.4019 63.5856 65.1248C62.2964 66.3585 59.685 68.2943 58.9629 68.5514C58.7574 68.6247 58.4528 68.7971 58.2862 68.9347C57.8746 69.2744 54.9123 70.4398 54.4601 70.4398C53.8203 70.4398 53.5385 71.1351 53.6217 72.5086C53.6588 73.122 54.9823 72.9299 58.4881 71.8022C60.8068 71.0564 64.6392 69.1333 65.3254 68.371C65.5004 68.1766 65.7241 68.0178 65.8224 68.0178C66.017 68.0178 66.215 67.8498 68.171 66.0252C68.8889 65.3557 69.5149 64.8467 69.5621 64.8939C69.6887 65.0205 68.254 66.7375 66.9216 68.0541C64.492 70.4551 61.5261 72.3782 58.1292 73.7554C56.8767 74.263 55.6774 74.6784 55.4638 74.6784C54.8081 74.6784 54.0218 75.1291 54.1399 75.4373C54.1999 75.5931 54.2487 75.8393 54.2487 75.9845C54.2487 76.1296 54.4078 76.442 54.602 76.6788L54.9553 77.1093L56.7722 76.7085C57.7714 76.488 59.2433 76.0842 60.0429 75.8111C61.5394 75.3 64.7846 73.7689 65.8565 73.0681C66.1896 72.8503 66.7347 72.5218 67.0678 72.3379C68.0357 71.8034 70.177 70.0155 71.7613 68.419C72.5662 67.608 73.2249 67.0413 73.2249 67.16C73.2249 67.4145 71.074 70.0218 70.022 71.0425C69.6184 71.4339 68.6979 72.2281 67.9762 72.8076C67.2545 73.3868 66.5271 73.9772 66.3598 74.1195C65.6928 74.6871 63.2923 76.1102 61.9884 76.7111C59.4811 77.8664 59.0073 78.0567 57.4319 78.5395C56.5733 78.8025 55.8694 79.0681 55.8673 79.1295C55.8653 79.1908 56.1457 79.6246 56.4905 80.0935C57.0768 80.8905 57.1652 80.9375 57.8532 80.8197C59.7411 80.4963 64.4945 78.7845 65.9575 77.9011C66.124 77.8006 66.6236 77.5317 67.0678 77.3039C68.0682 76.7904 68.5164 76.5195 69.3237 75.9399C69.6717 75.6902 70.0105 75.4857 70.0765 75.4857C70.1427 75.4857 70.3728 75.3269 70.588 75.1325C70.8032 74.9381 71.3255 74.5084 71.7488 74.1774C72.1722 73.8464 73.4206 72.6897 74.5232 71.607C75.6258 70.5242 76.5605 69.6708 76.6003 69.7106C76.68 69.7903 75.3761 71.564 74.8621 72.0747C74.6835 72.2523 74.2543 72.7064 73.9085 73.0839C72.2208 74.9258 69.8552 76.9214 67.6734 78.3433C66.4504 79.1402 63.991 80.5314 63.8026 80.5329C63.7108 80.5337 63.3662 80.6747 63.0365 80.8465C61.9835 81.3955 59.4801 82.3482 59.0903 82.3482C58.8831 82.3482 58.6672 82.4235 58.6104 82.5155C58.5535 82.6075 57.9804 82.7995 57.3368 82.942C56.693 83.0847 55.6215 83.3358 54.9553 83.5001C54.2891 83.6646 52.8356 83.8733 51.7253 83.9643C49.3823 84.1562 43.1287 84.0101 42.866 83.7572ZM49.5047 59.8093C52.599 59.4282 55.4801 57.7673 57.4216 55.2455C59.6359 52.3692 60.3461 49.1771 59.6168 45.3794C59.3436 43.9582 58.5083 41.9721 57.9475 41.4114C57.8007 41.2647 57.6806 41.0677 57.6806 40.9737C57.6806 40.8796 57.0877 40.2184 56.3632 39.5047C54.8372 38.0014 52.4207 36.6939 50.5274 36.347C48.06 35.895 45.3626 36.127 43.6021 36.9422C43.1313 37.1602 42.6979 37.3386 42.6387 37.3386C41.9632 37.3386 38.5578 40.485 37.8099 41.8C36.423 44.2386 35.9334 46.7214 36.2609 49.6547C36.3703 50.6334 36.5506 51.6004 36.6618 51.8038C36.773 52.0073 37.154 52.7862 37.5085 53.5348C38.2033 55.0023 39.8044 56.8134 41.3334 57.8617C43.5677 59.3937 46.74 60.1498 49.5047 59.8093ZM44.6427 55.323C42.9567 54.5353 41.4775 53.0506 40.6737 51.3388C40.0842 50.084 40.0226 49.7721 40.0198 48.0295C40.0164 45.9887 40.2459 45.1795 41.309 43.4857C41.959 42.4497 43.5603 41.1357 44.975 40.4773C45.9004 40.0466 46.3677 39.9661 47.9502 39.9645C49.5464 39.9627 50.0253 40.0456 51.1477 40.5175C52.8937 41.2516 54.4873 42.7995 55.332 44.5815C55.916 45.8141 55.9647 46.0795 55.9647 48.0359C55.9647 49.9451 55.9085 50.2715 55.3982 51.3271C54.6949 52.7823 52.7924 54.7177 51.4899 55.3031C49.3335 56.2723 46.6911 56.28 44.6427 55.323Z" fill="#B70002" fill-opacity="0.968627"/>
</svg>
