<svg width="500" height="500" viewBox="0 0 500 500" fill="none" xmlns="http://www.w3.org/2000/svg">
<g clip-path="url(#clip0_5_42)">
<path d="M158.203 59.8984L138.549 22.4607C135.054 15.802 139.883 7.8125 147.403 7.8125H154.539C156.905 7.8125 159.194 8.65149 161 10.1803L219.727 59.8984" stroke="#264653" stroke-width="18" stroke-linejoin="round"/>
<path d="M288.086 54.6875C250.915 54.6875 95.8382 64.3124 67.0943 66.1167C64.1783 66.2997 61.3276 65.2003 59.2909 63.1054L31.2654 34.2792C29.3826 32.3426 26.7964 31.25 24.0954 31.25H19.9451C13.6562 31.25 8.92828 36.9861 10.1291 43.1594L17.6797 81.9766C19.2477 87.8386 22.7829 92.9836 27.6927 96.5493C32.6026 100.115 38.5889 101.885 44.6484 101.562H156.952C165.384 101.562 170.031 111.357 164.697 117.888L140.318 147.737C134.984 154.268 139.631 164.062 148.063 164.062H160.241C162.325 164.062 164.357 163.411 166.053 162.2L248.338 103.425C250.034 102.214 252.066 101.562 254.15 101.562H308.594C331.681 101.562 335.275 89.031 335.834 85.1296C335.943 84.3724 335.856 83.6212 335.619 82.8938C333.892 77.5835 324.345 54.6875 288.086 54.6875Z" stroke="#264653" stroke-width="18" stroke-linejoin="round"/>
<path d="M289.062 54.6875V68.125C289.062 73.6478 293.54 78.125 299.063 78.125H335.938" stroke="#264653" stroke-width="14" stroke-linejoin="round"/>
<path d="M270.509 254.884C272.384 256.759 274.927 257.812 277.58 257.812H304.688C309.002 257.812 312.5 254.315 312.5 250V250C312.5 245.685 309.002 242.188 304.687 242.188H295.243C291.455 242.188 287.992 240.047 286.299 236.66L276.201 216.465C274.508 213.078 271.045 210.938 267.257 210.938H261.955C259.302 210.938 256.759 211.991 254.884 213.866L228.181 240.569C227.145 241.605 225.739 242.188 224.274 242.188V242.188C221.223 242.188 218.75 239.714 218.75 236.663V222.892C218.75 220.24 219.804 217.696 221.679 215.821L254.884 182.616C256.759 180.741 259.302 179.688 261.955 179.688H271.815C272.89 179.688 273.957 179.514 274.977 179.174L286.086 175.471C291.78 173.573 294.473 167.072 291.789 161.703V161.703C290.118 158.361 286.702 156.25 282.966 156.25H276.498C268.511 156.25 263.747 147.349 268.177 140.703L270.469 137.265C272.323 134.484 275.446 132.812 278.789 132.812H306.32C310.107 132.812 313.57 134.953 315.264 138.34L317.549 142.91C319.242 146.297 322.705 148.438 326.493 148.438H350.331C351.149 148.438 351.964 148.337 352.757 148.139L381.618 140.924C382.411 140.725 383.226 140.625 384.044 140.625H408.786C411.7 140.625 414.062 142.987 414.062 145.901V145.901C414.062 147.504 414.791 149.02 416.043 150.022L450.819 177.843C452.324 179.047 453.449 180.66 454.059 182.489L458.983 197.262C460.181 200.855 459.246 204.817 456.567 207.495L455.887 208.175C454.119 209.944 453.125 212.343 453.125 214.844V214.844C453.125 217.345 454.119 219.744 455.887 221.512L458.009 223.634C459.884 225.509 460.938 228.052 460.938 230.705V242.188C460.938 246.502 457.44 250 453.125 250V250C448.81 250 445.312 253.498 445.312 257.812V264.002C445.312 265.077 445.139 266.145 444.799 267.165L438.068 287.359C437.729 288.376 436.776 289.062 435.704 289.062V289.062C433.484 289.062 432.372 291.747 433.942 293.317L443.694 303.069C444.73 304.105 445.312 305.511 445.312 306.976V306.976C445.312 310.027 442.839 312.5 439.788 312.5H437.5C433.185 312.5 429.688 315.998 429.688 320.312V335.938C429.688 340.252 426.19 343.75 421.875 343.75V343.75C417.56 343.75 414.062 340.252 414.062 335.938V313.731C414.062 312.913 413.962 312.099 413.764 311.306L410.534 298.385C408.648 290.844 399.257 288.243 393.761 293.739L384.431 303.069C383.395 304.105 381.989 304.688 380.524 304.688V304.688C377.473 304.688 375 302.214 375 299.163V281.245C375 276.657 371.877 272.657 367.425 271.544L359.038 269.447C353.03 267.945 348.028 274.181 350.797 279.72V279.72C351.301 280.726 351.562 281.836 351.562 282.961V294.687C351.562 300.21 347.085 304.688 341.562 304.688H335.333C331.028 304.688 327.207 301.933 325.846 297.85L322.382 287.459C321.146 283.751 317.676 281.25 313.768 281.25V281.25C308.753 281.25 304.688 285.315 304.688 290.33V318.125C304.688 323.648 309.165 328.125 314.688 328.125H333.75C339.273 328.125 343.75 332.602 343.75 338.125V338.398C343.75 341.742 342.079 344.864 339.297 346.719L327.658 354.478C323.461 357.276 322.005 362.76 324.26 367.271L327.069 372.889C327.764 374.277 328.125 375.808 328.125 377.361V380.043C328.125 381.855 327.632 383.633 326.7 385.188L307.601 417.02C305.793 420.032 302.538 421.875 299.026 421.875H281.636C276.869 421.875 272.765 418.51 271.83 413.836L265.819 383.783C265.69 383.138 265.625 382.481 265.625 381.822V361.736C265.625 360.183 265.264 358.652 264.569 357.264L258.48 345.085C258.041 344.207 257.812 343.239 257.812 342.258V342.258C257.812 338.767 254.983 335.938 251.492 335.938H222.892C220.24 335.938 217.696 334.884 215.821 333.009L206.054 323.241C204.179 321.366 203.125 318.823 203.125 316.17V293.746C203.125 290.778 204.443 287.964 206.723 286.064L247.219 252.318C249.016 250.82 251.281 250 253.62 250H261.483C264.135 250 266.679 251.054 268.554 252.929L270.509 254.884Z" stroke="#2A9D8F" stroke-width="18" stroke-linejoin="round"/>
<path d="M453.125 382.812L435.234 370.885C431.876 368.646 427.499 368.646 424.14 370.886L410.703 379.844C407.921 381.698 406.25 384.821 406.25 388.164V437.5" stroke="#2A9D8F" stroke-width="18" stroke-linejoin="round"/>
<path d="M132.812 179.688V188.105C132.812 192.409 130.058 196.231 125.975 197.592L116.213 200.846C112.129 202.207 109.375 206.028 109.375 210.333V214.608C109.375 217.26 108.321 219.804 106.446 221.679L101.562 226.562L96.6789 231.446C94.8036 233.321 93.75 235.865 93.75 238.517V240C93.75 245.523 89.2728 250 83.75 250H78.125C73.8103 250 70.3125 253.498 70.3125 257.812V257.812C70.3125 262.127 73.8103 265.625 78.125 265.625H79.3928C83.3012 265.625 86.7712 268.126 88.0071 271.834L91.4708 282.225C92.8319 286.308 96.6533 289.062 100.958 289.062H101.562H119.648C122.992 289.062 126.114 290.734 127.969 293.515L140.076 311.676C140.441 312.224 140.86 312.735 141.325 313.2L158.966 330.841C162.01 333.885 162.764 338.534 160.839 342.384L157.306 349.451C156.611 350.84 156.25 352.371 156.25 353.923V363.854C156.25 366.018 155.548 368.123 154.25 369.854L135.813 394.437C133.924 396.956 130.96 398.438 127.813 398.438H125.659C120.77 398.438 116.598 394.903 115.795 390.081L110.212 356.585C109.686 353.43 107.682 350.716 104.82 349.285L99.2779 346.514C95.89 344.82 93.75 341.357 93.75 337.57V315.833C93.75 313.67 93.0482 311.564 91.75 309.833L71.3403 282.62C70.66 281.713 69.8306 280.929 68.8873 280.3L51.328 268.594C48.546 266.739 46.875 263.617 46.875 260.273V203.125C46.875 198.81 43.3772 195.312 39.0625 195.312V195.312C34.7478 195.312 31.25 191.815 31.25 187.5V183.83C31.25 181.177 32.3036 178.634 34.1789 176.759L62.5 148.438L100 117.188" stroke="#2A9D8F" stroke-width="18" stroke-linejoin="round"/>
<path d="M195.313 14.0156C249.739 1.40235 306.853 7.99442 356.976 32.6747C407.099 57.355 447.147 98.6056 470.334 149.436C493.521 200.266 498.422 257.55 484.204 311.581C469.987 365.611 437.527 413.064 392.324 445.898C347.122 478.733 291.957 494.93 236.179 491.744C180.4 488.558 127.439 466.185 86.2689 428.417C45.0991 390.649 18.2532 339.808 10.2807 284.511C2.30807 229.213 13.6991 172.86 42.5235 125" stroke="#0077B6" stroke-width="18" stroke-linejoin="round"/>
</g>
<defs>
<clipPath id="clip0_5_42">
<rect width="500" height="500" fill="white"/>
</clipPath>
</defs>
</svg>
